<?xml version="1.0" encoding="UTF-8"?>
<svg id="Layer_1" data-name="Layer 1" xmlns="http://www.w3.org/2000/svg" viewBox="0 0 615.2 631.15">
  <defs>
    <style>
      .cls-1, .cls-2 {
        fill: #010101;
      }

      .cls-3 {
        fill: #f5ecd2;
      }

      .cls-4 {
        fill: #fba72b;
      }

      .cls-5 {
        fill: #407a84;
      }

      .cls-2 {
        opacity: .46;
      }

      .cls-6 {
        fill: #dfcd9f;
      }

      .cls-7 {
        fill: #ea2e34;
      }

      .cls-8 {
        fill: #7a1502;
      }

      .cls-9 {
        fill: #991c09;
      }

      .cls-10 {
        fill: #fea423;
      }

      .cls-11 {
        fill: #db7c26;
      }

      .cls-12 {
        fill: #fff;
      }

      .cls-13 {
        fill: #eda837;
      }

      .cls-14 {
        fill: #98cedb;
      }

      .cls-15 {
        fill: #19150b;
      }

      .cls-16 {
        fill: #412e1f;
      }

      .cls-17 {
        fill: #f0b85c;
      }

      .cls-18 {
        fill: #ffd063;
      }

      .cls-19 {
        fill: #bc202c;
      }

      .cls-20 {
        fill: #fdeda5;
      }

      .cls-21 {
        fill: #fbd090;
      }

      .cls-22 {
        fill: #3e2e30;
      }

      .cls-23 {
        fill: #961222;
      }

      .cls-24 {
        fill: #2f191f;
      }

      .cls-25 {
        fill: #a3c8b9;
      }

      .cls-26 {
        fill: #c12710;
      }

      .cls-27 {
        fill: #e93a1e;
      }

      .cls-28 {
        fill: #ffdf91;
      }

      .cls-29 {
        fill: #341e27;
      }

      .cls-30 {
        fill: #f9f7ee;
      }

      .cls-31 {
        fill: #784621;
      }
    </style>
  </defs>
  <path class="cls-1" d="M605.13,333.5l-46.1-2.99c-.39-.03-.58-.23-.59-.61l-.17-9.9.03-10.9c0-.54-.41-1-.96-1.05l-70.26-7.12-99.21-9.83c-.41-.04-.72-.39-.72-.8,0,0-164.93-.38-164.73-.15.41.45.72.86.91,1.21.17.32.08.5-.29.52l-8.29.58c-.29.02-.55-.17-.6-.45-.21-1.03-.37-2.04-.54-3.06h-10c.93,1.35,1.92,2.65,2.98,3.85.3.34.22.53-.23.56l-79.48,7.29-66.38,6.45-.46,22.48c-.01.35-.19.54-.54.56l-45.19,3.15c-.5.03-.69.29-.58.77,3.43,14.75,5.87,24.9,7.28,30.44,6.39,25.01,12.19,50.47,18.65,74.62.76,2.84,2.04,3.86,5.11,4.29,3.38.48,6.18,1.49,8.38,3.05,1.58,1.13,3.1,1.81,4.54,2.05,4.78.79,14.06,3.59,19.34,7.04.59.39.95,1.04.96,1.75.23,26.77.29,91.25.17,113.81-.01,2.27-1.42,2.72-2.53,4.36-5.67,8.32-3.68,22.25,9.18,21.49,16.75-1,27.75-1.66,33-1.99,3.18-.2,6.6-1.23,9.67-.96,3.69.32,7.53.55,11.49.7.43.01.75.22.91.62.68,1.54,2.22,2.69,4.59,3.44,12.28,3.87,24.27,7.03,35.98,9.46,69.7,14.49,140.85,17.22,211.08,10.13,5.15-.52,13.61-1.63,25.37-3.3,28.23-4.01,54.04-9.62,77.44-16.83,1.76-.54,2.84-1.68,3.26-3.42.09-.37.32-.55.7-.54,2.38.06,5.9-.29,10.57-1.01,3.33-.52,5.9.72,9.12,1.03,10.32.98,20.92,1.84,31.84,2.53,5.39.34,8.92.19,10.58-.44,9.17-3.51,8.14-16.28,3.48-23.15-1.91-2.81-5.75-10.11-11.56-21.91-.18-.35-.16-.69.08-1.01,3.31-4.68,6.54-8.14,6.74-14.01.04-1.32.09-53.74.12-77.62.01-.38.13-.71.38-1,2.71-3.12,4.62-5.31,9.22-6.03,5.15-.82,11.05-2.16,15.47-4.5,2.32-1.23,5.33-1.73,7.46-2.1,2.91-.51,5.33-3.14,7.88-5.19.62-.49,1-1.23,1.04-2.03l4.94-103.75c.02-.31-.21-.56-.52-.59ZM78.71,320.5c-3.43.01-5.57-.01-6.41-.07-1.38-.09-1.39-.24-.03-.46,3.03-.5,6.38-.89,10.06-1.17,34.77-2.69,74.87-5.3,120.28-7.84,11.01-.62,20.5-1.08,28.49-1.39.21-.01.32.1.32.31l-.04,9.41c0,.17-.13.29-.3.3-49.66.42-100.45.73-152.36.92ZM547.95,321.03c-.85.06-3,.07-6.46.03-52.25-.43-103.36-.97-153.34-1.63-.17-.01-.3-.13-.3-.3v-9.47c0-.21.11-.32.32-.31,8.04.35,17.6.86,28.67,1.54,45.69,2.76,86.04,5.58,121.02,8.44,3.7.3,7.07.71,10.12,1.23,1.37.23,1.36.39-.03.46Z"/>
  <path class="cls-12" d="M386.05,104.88c-.14-.39-.26-.79-.4-1.18-1.24,1.22-2.55,2.38-3.9,3.48,2.6,2.6,5.5,5.05,8.79,7.34.86.61,1.03.45.5-.46-1.45-2.5-3.83-6.1-4.98-9.17Z"/>
  <path class="cls-12" d="M406.52,105.76c-3.07-.68-6.03-1.63-8.84-2.83.6.47,1.2.94,1.82,1.4,1.07.8,4.77,3.23,11.09,7.29.72.45.83.33.34-.37-1.22-1.76-2.7-3.59-4.41-5.49Z"/>
  <path class="cls-12" d="M425.27,106.31c3.32,3.79,5.64,6.7,6.92,8.69,2.05,3.19,4.32,6.33,6.79,9.44-2.75-6.6-5.81-12.96-9.15-19.11-1.51.4-3.03.72-4.57.98Z"/>
  <path class="cls-4" d="M556.82,328.18c.01.38.2.58.59.61l45.98,2.99c.31.02.55.28.52.59l-4.93,103.75c-.03.8-.41,1.54-1.03,2.03-2.55,2.05-4.96,4.68-7.86,5.19-2.12.38-5.13.87-7.44,2.1-4.4,2.35-10.29,3.69-15.43,4.5-4.59.72-6.5,2.91-9.2,6.03-.24.29-.37.62-.38,1-.03,23.88-.08,76.3-.12,77.62-.2,5.87-3.41,9.33-6.72,14.01-.23.32-.26.65-.08,1.01,5.8,11.8,9.63,19.1,11.53,21.91,4.65,6.87,5.67,19.64-3.47,23.15-1.66.63-5.18.79-10.56.44-10.89-.7-21.47-1.55-31.76-2.53-3.21-.31-5.77-1.55-9.1-1.03-4.66.72-8.18,1.06-10.54,1.01-.38-.01-.61.18-.7.54-.41,1.74-1.49,2.88-3.25,3.42-23.34,7.22-49.09,12.83-77.24,16.83-11.73,1.67-20.17,2.78-25.3,3.3-70.04,7.09-141,4.36-210.52-10.13-11.68-2.43-23.64-5.59-35.88-9.46-2.37-.75-3.9-1.9-4.58-3.44-.17-.4-.48-.61-.91-.62-3.95-.14-7.77-.38-11.46-.7-3.06-.27-6.47.76-9.64.96-5.24.33-16.21,1-32.91,1.99-12.82.76-14.8-13.17-9.15-21.49,1.11-1.64,2.51-2.09,2.52-4.36.12-22.55.07-87.04-.17-113.81-.01-.71-.37-1.36-.96-1.75-5.26-3.45-14.52-6.25-19.29-7.04-1.43-.23-2.95-.92-4.53-2.05-2.19-1.56-4.98-2.58-8.35-3.05-3.06-.43-4.34-1.45-5.09-4.29-6.44-24.15-12.22-49.61-18.6-74.62-1.41-5.54-3.84-15.69-7.26-30.44-.11-.49.08-.74.58-.77l45.07-3.15c.34-.02.52-.21.53-.56l.46-22.48-7.57-.45c-.41-.02-.62.17-.62.58v12.67c0,.5-.39.91-.89.93l-13.44.54-.26.18c-.22.15-.47.24-.73.25l-36.17,2.3c-.33.02-.57.33-.49.65,6.56,27.54,16.33,67.76,29.29,120.66.62,2.52,2.28,4.44,4.97,5.74,3.17,1.53,6.85,3.29,11.05,5.29,3.38,1.6,6.8,2.93,10.23,3.97,5.32,1.6,8.81,2.66,10.49,3.15.47.13.79.56.79,1.05-.12,27.63-.1,87.02.09,98.48.03,2.18-.39,3.97-1.26,5.39-5.45,8.8-6.27,17.63-2.48,26.48,4.02,9.33,11.57,13.04,21.85,12.57,9.79-.44,23.87-1.24,42.23-2.39,2.97-.19,5.34.04,7.09.71,7.41,2.78,13.51,4.84,18.31,6.17,22.13,6.18,44.66,10.88,67.58,14.12,65.83,9.32,132.15,8.73,197.41-.44,23.26-3.26,47.46-8.62,72.62-16.06,3.19-.94,6.3-2.05,9.29-3.31,5.09-2.15,11.19-1.59,15.35-1.32,16.84,1.14,28.71,2.06,35.59,2.76,6.83.69,12.59.17,17.35-3.84,12.28-10.33,11.31-25.65,3.03-38.72-3.59-5.69-5.72-9.02-6.37-10-.21-.32-.14-.75.14-1,3.16-2.72,3.67-7.35,3.74-11.89.14-9.14.22-61.61.24-77.74,0-.66.49-1.23,1.16-1.32,7.93-1.13,16.31-4.56,22.28-6.43,5.8-1.8,8.85-4.77,13.26-7.48,3.74-2.29,4.3-5.41,4.52-9.64,1.39-28.19,3.18-66.59,5.36-115.2.01-.37-.27-.68-.63-.7l-43.38-2.59-14.54-1.24.17,9.9Z"/>
  <path class="cls-4" d="M78.3,320.5c52.15-.19,103.17-.5,153.06-.92.17-.01.3-.13.3-.3l.04-9.41c0-.21-.11-.32-.32-.31-8.03.31-17.57.77-28.62,1.39-45.62,2.53-85.9,5.15-120.83,7.84-3.7.29-7.06.68-10.11,1.17-1.37.22-1.36.38.03.46.85.06,2.99.08,6.44.07Z"/>
  <path class="cls-4" d="M385.27,319.43c49.6.65,100.32,1.2,152.16,1.63,3.43.03,5.57.02,6.41-.03,1.38-.08,1.39-.23.03-.46-3.02-.52-6.36-.93-10.04-1.23-34.72-2.87-74.75-5.69-120.09-8.44-10.99-.68-20.47-1.18-28.45-1.54-.21-.01-.32.1-.32.31v9.47c0,.17.13.29.3.3Z"/>
  <g>
    <path class="cls-4" d="M329.21,541.95l-10.28-.65c-.13,0-.27-.09-.32-.21l-3.81-8.82c-.12-.29-.57-.29-.71,0l-3.84,8.8c-.05.12-.18.2-.33.21l-10.28.61c-.34.02-.48.42-.21.62l7.9,6.08c.11.09.16.22.12.35l-2.55,9.2c-.09.3.28.55.57.38l8.72-5.05c.13-.07.28-.07.4,0l8.71,5.07c.29.17.66-.07.57-.37l-2.52-9.21c-.04-.12.01-.26.13-.35l7.93-6.06c.26-.2.12-.6-.22-.61Z"/>
    <path class="cls-7" d="M487.97,540.28c-.09-.01-.49.08-1.21.26-.62.17-1.03.25-1.21.25-44.77.78-88.41,1.01-130.94.7-.61-.01-.92.27-.92.83v12.12c0,.36.33.64.72.63,44.99-1.72,89.4-5.51,133.53-13.63,2.21-.4,2.22-.79.02-1.16Z"/>
    <path class="cls-7" d="M277.09,541.48c-45.52.43-88.92.16-130.18-.8-.28-.01-.42.11-.43.37v.31c-.01.06.01.09.07.1,6.27,1.08,12.86,2.23,19.79,3.45,6.91,1.21,13.52,2.23,19.84,3.04,28.76,3.65,58.96,6.16,90.58,7.52.35.01.54-.13.55-.46l.48-12.87c.01-.44-.22-.66-.7-.66Z"/>
  </g>
  <g>
    <g>
      <g>
        <g>
          <path d="M448.2,58.5s6.1-5.33,3.76-14.4c0,0-2.03,1.5-2.74,1.4,0,0,0-9.45-4.57-15.15,0,0-2.34,4.02-3.35,4.12,0,0,.71-8.7-5.18-14.68,0,0-1.12,6.27-5.18,8.04,0,0,.61-14.78-16.06-22.17,0,0,4.57,12.06.2,17.4,0,0-20.02-11.41-21.7-23.05,0,0-8.84,8.14,1.52,23.29,0,0-11.28-3.65-16.16-5.61-4.88-1.96-10.83-4.07-11.59-9.68,0,0-2.9,3.09-.91,9.82,1.98,6.73,12.05,11.36,12.05,11.36,0,0-15.7-7.01-25.16-.98,0,0,5.03,2.95,8.84,5.33,3.81,2.38,5.64,2.38,5.64,2.38,0,0-10.06,1.68-9.45,6.87.61,5.19,5.34,10.8,12.35,13.47s23.94,2.38,23.94,2.38c0,0,8.23-9.54,20.43-9.68,12.2-.14,19.06,7.86,20.28,9.4s.91,2.24,3.66,1.82,5.39-1.82,9.4-1.68Z"/>
          <path class="cls-19" d="M438.64,58.78s11.18-1.78,10.98-11.41c0,0-3.15,2.53-3.76,2.53,0,0,2.85-5.8,1.22-11.04,0,0-1.32,4.12-2.85,4.77,0,0,1.02-7.2-.1-9.63,0,0-2.85,3.55-4.17,3.55,0,0-1.12-9.63-3.66-12.63,0,0-2.54,5.61-5.08,6.08,0,0-6.3-15.71-12.5-19.55,0,0,1.52,5.52.61,8.98-.91,3.46-1.83,9.17-1.83,9.17,0,0-10.98-8.88-15.25-11.78-4.27-2.9-9.25-12.06-9.25-12.06,0,0-1.02,3.55,1.83,10.47s7.12,13.84,7.12,13.84c0,0-12.4-5.8-19.62-7.86-7.22-2.06-14.23-7.76-14.23-7.76,0,0,0,2.62,3.66,6.27,3.66,3.65,13.21,8.7,15.35,14.12,0,0-17.79-5.71-27.45-5.52,0,0,12.2,5.33,13.93,8.23,0,0-11.08-.56-11.79,4.49-.71,5.05,7.01,8.6,13.01,9.54,6,.94,15.65.56,17.48,2.62,0,0-4.35-3.83-11.66-4.68,0,0,7.85-.28,13.65,2.67,0,0-.38-3.09-8.77-4.91,0,0,3.35-.28,5.72.91s7.62,2.24,7.62,2.24l-6.1-4.42s6.1,2.38,8,2.74,2.9-.14,2.9-.14c0,0-2.21-.84-3.28-1.89-1.07-1.05-1.75-1.89-1.75-1.89,0,0,3.35,1.33,4.57,2.24s3.66.98,3.66.98c0,0-2.59-2.6-2.82-3.79,0,0,4.27,2.95,5.03,3.3s1.14.35,1.14.35c0,0,.53-1.68-.23-2.74-.76-1.05-1.07-1.61-1.07-1.61,0,0,3.13,2.1,3.89,2.88s2.29.63,2.29.63l-1.98-3.16s3.51,1.68,4.19,2.6c0,0-.15-2.1.15-1.89s.91,1.4,2.52,1.89,3.2.63,3.2.63l-2.59-3.09s4.5,1.33,5.41,4c0,0,1.52,1.19,1.98,1.05s-.91-3.09-.91-3.09c0,0,1.83,2.17,2.44,3.37s2.21,2.81,2.21,2.81l-.69-3.65s1.22,2.74,2.06,4.49,2.74,3.93,2.74,3.93c0,0-.84-2.53-.61-4,0,0,.99,1.96,1.37,3.16.38,1.19.99,2.74.99,2.74l1.07-.07Z"/>
        </g>
        <g>
          <g>
            <path class="cls-24" d="M118.03,188.97c-.04.18-.07.37-.11.55.05-.19.08-.37.11-.55Z"/>
            <path class="cls-1" d="M148.86,74.35c15.89-2.39,28.29,2.31,40.36,11.95.91.72,1.87,1.41,2.86,2.04.31.2.37.14.19-.17-3.7-6.28-8.77-11.19-15.18-14.73-1.07-.59-2.01-1.32-2.82-2.18-.91-.96-1.85-1.87-2.82-2.75-3.2-.2-6.44-.17-9.71.11-.13.01-.25,0-.38.01.02.18-.27.26-.9.22-17.02-1.04-34.52,5.63-47.56,16.25-13.07,10.63-19.32,24.57-22.21,40.76-3,16.8-3.92,33.6-2.76,50.43,0,.03.03.06.06.06s.06-.03.06-.06c.26-6.98.84-13.9,1.74-20.74.5-4.53,1.34-10.71,2.52-18.55,1.36-9.05,3.59-18.47,6.87-26.31,8.29-19.86,28.26-33.12,49.67-36.35Z"/>
            <path class="cls-1" d="M442.49,110.96l2.12-.18c.62-.32,1.24-.48,1.85-.48,3.77-1.76,6.02-4.43,6.75-7.99,1.38-6.69-1.94-11.39-4.5-17.03-.91-2.02-4.64-8.71-1.6-9.75,11.87-4.07,19-2.33,19.89-2.18-2.73-7.05-8.57-12.68-16.15-14.92-.13-.04-.18-.16-.17-.27-1-.23-1.99-.54-3-.85-2.28-.71-4.57-.56-6.93-.62-3.83-.11-6.77-2.2-9.77-4.3-1.52-1.06-3.06-2.12-4.77-2.88-2.07-.92-4.44-1.35-6.68-1.59-9.04-.96-17.66,2.35-25.72,5.95.67-.19,1.34-.38,1.99-.59.07-.02.15.01.18.07.03.07,0,.15-.06.18-27.83,15.65-46.06,46.51-55.47,75.39-1.78,5.47-3.26,9.59-4.42,12.37-5.15,12.26-14.01,20.92-26.61,26-6.89,2.78-13.13,4.37-18.75,4.8-10.7.8-19.72,2.1-27.07,3.89-.23.06-.45.03-.67-.07-8.15-4.07-13-12.96-15.91-21.04-2.61-7.24-5.17-15.23-7.69-23.99-.6-2.09-1.25-4.17-1.87-6.26-3.13-4.38-5.91-8.99-8.67-13.6,4.27,14,8.71,30.89,14.24,45.57,2.71,7.17,6.59,13.44,11.66,18.83.49.52.4.63-.25.33-7.5-3.38-11.57-10.59-14.97-17.58-2.21-4.53-4.48-9-6.82-13.42-9.61-16.67-21.93-32.37-40.4-39.91-9.7-3.96-19.66-4.89-29.86-2.8-3.38.7-7.46,2.77-11.04,2.65-11.43-.39-21.8,2.79-31.12,9.55-8.03,6.28-13.57,14.32-16.63,24.11-.03.09-.13.15-.22.14-.1-.01-.17-.09-.17-.19-.29-9.07,1.45-17.78,5.22-26.15.16-.36.11-.61-.15-.77-.15-.09-.33-.05-.43.09-1.41,1.96-2.6,4.03-3.59,6.22-2.9,6.49-4.71,12.96-5.4,19.4-1.19,13.51,1.76,25.6,8.86,36.27.15.23.52.09.47-.17-3.38-22.26,4.64-49.11,28.17-57.93.14-.05.25.12.15.22-14.19,13.71-20.65,29-24.52,47.72-5,24.12-5.33,50.43,2.37,73.9.23.69.51,1.28.86,1.76.17.24.55.1.52-.18-.5-4.9-.87-9.8-1.1-14.71-.51-11.05.39-21.96,2.72-32.75-.15-1.1,0-2.18.46-3.24.09-.22.16-.21.19.02.05.31.06.63.02.96,1.74-8.97,5.07-17.26,10-24.87,4.89-7.71,11.31-13.86,19.25-18.46.48-.28.64-.6.48-.96-.32-.03-.63,0-.95.09-10.81,3.5-19.07,10.03-24.8,19.59-2.66,4.44-4.87,9.08-6.64,13.92,0,.03-.04.04-.06.03s-.04-.03-.04-.06c1.18-11.3,3.75-22.3,7.71-33,9.05-24.41,33.65-45.05,62.06-37.71,22.16,5.72,36.16,25.54,46.03,44.08,4.02,7.57,7.72,15.69,13.45,22.21,2,2.28,4.67,4.21,8.01,5.78.1.04.06.18-.05.18-7.58-.45-15.74-9.53-20.32-14.81-6.13-5.7-10.21-9.38-12.25-11.03-16.13-13.07-35.57-17.34-55.8-10.28-14.88,5.2-25.59,14.58-32.13,28.15-2.61,5.43-4.8,11.79-6.57,19.09-1.06,5.11-1.6,10.57-1.64,16.38l-1.02,20.63c0,.23.08.28.27.14.12-.09.19-.22.22-.39,2.99-20.14,10.37-37.87,27.03-51.05.07-.05.17-.05.24,0,.07.06.08.16.02.23-1.36,1.72-2.56,3.53-3.61,5.46-1.39,2.53-3.4,3.45-4.94,5.61-3.67,5.13-6.41,10.88-8.22,17.23-2.37,8.33-3.36,16.38-2.95,24.16.13,2.22.54,3.78,1.26,4.65,3.37-23.94,13.66-43.18,37.96-52.03-6.26,1.2-12.03,3.56-17.28,7.09-1.53,1.03-3.5,2.8-5.28,4.14-.24.18-.32.12-.26-.16,3.86-16.57,15.74-29.56,32.87-33.5.26-.06.27-.16.05-.3-.22-.13-.45-.17-.72-.12-7,1.26-12.4,3.43-19.15,7.07-4.48,2.42-9.1,4.68-12.96,7.59-6.8,5.15-12.42,11.32-16.83,18.49-.01.03-.06.04-.08.03-.04-.01-.05-.04-.04-.07,1.77-7.59,4.12-15.11,8.06-21.59,15.04-24.73,48.13-33.35,73.2-17.26,9.58,6.15,19.48,17.21,26.73,23.73,2.57,2.32,5.61,4.28,9.13,5.89.29.13.3.28.03.45-2.88,1.68-5.54,3.65-7.99,5.89-.38.35-.98.32-1.34-.05-2.22-2.38-4.79-4.32-7.72-5.83-.1-.05-.22-.03-.29.06-.06.09-.06.21.02.28l6.82,6.82c.17.17.17.44.01.62l-4.92,5.55c-.13.14-.34.16-.48.03-2.49-2.27-5.22-4.18-8.22-5.74-1.87-.98-2.06-.75-.56.68.15.15.78.63,1.87,1.44,2.15,1.59,4.07,3.4,5.77,5.43.14.17.15.35.04.54l-3.18,5.3c-.24.39-.81.44-1.11.08-4.79-5.71-10.79-9.7-18.01-11.99l-3.68-1.09c-.09-.03-.19.02-.22.1-.03.08,0,.18.08.22,3.53,1.8,7.47,3.39,10.54,5.39,4.23,2.77,7.63,6.23,11.74,9.1.2.14.29.39.2.61l-1.78,4.95c-.1.29-.46.41-.72.24-2.82-1.85-5.75-3.61-8.79-5.26-14.27-7.75-30.79-6.67-42.93,3.8-7.4,6.38-11.07,14.86-10.99,25.42,0,.04.03.07.07.07.03,0,.07-.03.08-.06.29-1.69.61-3.37.98-5.04,1.95-8.91,9.64-16.67,17.8-20.78,8.2-4.13,16.7-4.75,25.48-1.84,6.02,1.99,11.76,4.57,17.22,7.72.22.13.33.38.27.62l-.7,3.03c-.08.35-.49.53-.82.37l-8.13-3.99c-.3-.15-.51-.07-.61.24-.1.3-.03.52.21.64,1.89.9,3.52,2.08,4.89,3.53,1.19.52,2.29,1.3,3.29,2.33.1.11.15.26.13.41l-1.72,10.48c-.04.2-.12.37-.26.52-.47.48-.96.93-1.46,1.36-7.52,6.42-11.31,15.5-12.16,25.48-1.12,13.17,1.69,25.08,8.45,35.76,1.59,1.97,3.38,3.82,5.38,5.55.46.4.84.42,1.12.07.13-.16.15-.38.04-.55-10.58-17.93-12.53-38.71-1.42-56.87.16-.26.56-.16.58.14.65,10.09,3.66,19.43,9.01,28.03,2.4,3.84,2.86,3.65,1.38-.57-1.08-3.07-1.66-7.2-1.75-12.4-.03-2.24.37-4.41,1.21-6.49.19-.45.29-.44.32.05.16,2.49.2,4.57.11,6.24-.38,7.45,2.75,12.81,9.39,16.07.22.11.38.27.47.49,2.58,6.32,5.49,11.43,11.31,15.06,3.13,1.95,8.17,3.45,11.18,5.05,5.58,2.97,8.41,8.39,11.36,14.02,2.25,4.3,5.54,7.61,9.88,9.92.22.12.35.3.38.53.05.28.1.62.15,1.03,1.65,12.64,2.79,24.01,3.41,34.12.54,8.6-.17,17.44-9.89,20.95-2.58.93-5.61-.26-8.07.24-.61.13-1.51.63-2.7,1.52-.18.14-.39.2-.62.18-5.1-.37-9.46,1.16-13.04,4.57-.17.15-.08.43.15.47l7.1,1.18c1.22-.28,2.33-.22,3.33.18l.81.36c1.86.7,3.52,1.7,5.45,2.02,5.52.91,10.98.58,16.36-.97.92-.26,1.84-.32,2.75-.17,3.55.58,7.12.87,10.72.86.25,0,.48.07.69.2,5.14,3.2,10.7,4.08,16.68,2.64.2-.05.38-.02.56.07,3.87,2.01,7.98,2.96,12.35,2.86,1.73-.04,4.39.22,6.58-.49,1.69-.55,2.85-.86,3.5-.95,3.19-.44,6.32-.8,9.37-1.11.54-.05.77-.7.38-1.06-2.96-2.8-6.5-4.38-10.64-4.74-.27-.03-.52-.14-.72-.32-1.08-1.05-2.36-1.76-3.83-2.13-.3-.07-.31-.18-.05-.34,1.65-.93,3.29-1.24,4.92-.95,6.15,1.11,12.54,2.96,18.91,1.65.24-.05.46-.01.66.1,5.37,3.03,10.91,3.54,16.63,1.53,3.62-1.28,7.44-1.24,11.18-1.49.77-.05.93-.38.51-1.01-1.51-2.21-3.73-2.81-6.16-4.11-.4-.22-.38-.33.09-.34,2.25-.05,4.56-.24,6.79-.14,1.01.04,1.76-.37,2.26-1.24.12-.2.29-.29.52-.28.26.01.53.02.81.04-.03-.41-.05-.82-.06-1.23-.48-.01-.95-.03-1.43-.04-.23,0-.45-.08-.63-.22-2.86-2.11-4.18-3.5-7.99-3.26-.23.01-.44-.11-.54-.31-1.02-2.09-2.56-2.68-5.01-2.55-9.64.49-23.27,2.49-29.36-7.15-2.17-3.43-3.86-7.07-5.06-10.92-2.49-7.96-4.07-16.09-4.73-24.41-.01-.2.09-.4.27-.5,4.04-2.22,7.33-5.21,9.89-8.98,7.9-11.66,16.25-24.81,28.18-33.01,3.2-2.2,6.03-4.12,9.68-5.8,21.68-9.97,38.74-23.32,51.87-42.87,5.8-8.63,10.54-17.73,14.2-27.31-.23-1.09.07-2.11.9-3.05,1.26-4.06,3.52-8.43,4.66-11.74,3.68-10.71,5.14-22.1,5.16-33.19.04-18.88-7.81-33.77-20.2-48.26-.14-.16-.03-.41.19-.43ZM335.54,367.29c-1.04,6.42-8.73,6.59-13.73,7.19-.63.07-1.55.03-2.76-.13-1.97-.26-3.63.42-4.98,2.06-.16.19-.34.22-.54.07-4.99-3.4-7.99-9.11-9.33-14.74-3.07-12.95-4.64-26.05-4.72-39.31,0-.2.09-.35.28-.44l13.2-6.1c.2-.09.31-.03.35.18,1.07,6.25,4.76,10.15,11.08,11.69.17.04.31.18.33.36,1.55,9.18,3.78,18.17,6.71,26.98,1.03,3.1,2.22,6.13,3.57,9.11.52,1.14.7,2.16.55,3.07Z"/>
            <path class="cls-24" d="M383.11,390.4s-.07.01-.09.03l-.15.16c-.08.08-.07.12.05.11"/>
            <path class="cls-24" d="M392.56,374.97c0,.41.02.82.06,1.23"/>
          </g>
          <path class="cls-14" d="M243.04,156.61c-5.54-14.68-9.98-31.57-14.24-45.57-6.2-10.38-12.28-20.77-21.85-28.63-10.3-8.47-22.55-13.11-35.5-13.9.96.88,1.91,1.79,2.82,2.75.81.86,1.75,1.59,2.82,2.18,6.41,3.54,11.48,8.45,15.18,14.73.18.31.12.36-.19.17-1-.63-1.95-1.32-2.86-2.04-12.07-9.64-24.47-14.34-40.36-11.95-21.4,3.22-41.38,16.49-49.67,36.35-3.28,7.84-5.51,17.26-6.87,26.31-1.18,7.84-2.02,14.02-2.52,18.55,1.62-6.97,4.64-13.12,9.07-18.46.69-6.45,2.49-12.91,5.4-19.4.98-2.18,2.17-4.26,3.59-6.22.1-.14.29-.18.43-.09.26.16.31.41.15.77-3.77,8.37-5.51,17.09-5.22,26.15,0,.09.08.18.17.19.1.01.19-.04.22-.14,3.06-9.79,8.6-17.83,16.63-24.11.81-1.17,1.79-2.07,2.92-2.71,1.26-.72,2.12-1.28,2.58-1.69,10.95-9.74,25.49-14.36,40.31-14.11,8.77.15,16.56,3.26,24.84,6.25.18.07.32.18.41.34.34.6.89.91,1.64.93.17,0,.33.07.46.18,1.66,1.45,3.57,2.47,5.71,3.06.17.05.26-.02.27-.19.03-.41.23-.72.61-.91.19-.1.29-.26.27-.47l-.04-.71c-.01-.19.08-.32.26-.38.77-.26,1.21-.81,1.32-1.67.1-.72,1.1-.86,1.41-.21.53,1.1,1.3,2,2.3,2.69,1.52,1.05,2.4,1.67,2.61,1.88,2.1,1.98,4.06,4.08,5.88,6.29,1.72,2.08,3.54,4.82,5.44,8.21,2.12,3.79,4.68,7.44,6.06,11.57.12.36.44.51.95.43-.26-9.86-3.5-18.51-9.7-25.96-.12-.14-.06-.35.11-.42.13-.05.26-.06.42-.04.12.02.24.08.37.18,4.91,3.84,6.82,8.23,8.32,14.69,1.12,4.84,1.61,8.88,1.46,12.11.08.87.03,1.35.52,2.11,1.84,2.87,3.4,5.9,4.69,9.07,2.35,4.43,4.62,8.9,6.82,13.42,3.4,6.99,7.47,14.19,14.97,17.58.65.3.74.19.25-.33-5.06-5.38-8.95-11.66-11.66-18.83Z"/>
          <path class="cls-19" d="M434.04,65.06c-.26.75-.69,1.49-1.31,2.21-1.04,1.23-1.86,3.35-.97,4.86s3.25,1.79,4.79,2.48c.19.09.29.31.19.5-3.11,6.6-.16,11.21,3.21,17.95.63,1.28,1.09,3.31,1.36,6.09.52,5.4-4.07,12.19-10.26,8.23.03-.66.47-1.13,1.32-1.41,5.65-1.82,5.84-7.4,3.37-11.8-1.26-2.25-2.26-4.29-3.01-6.11-.21-.51-.64-2.15-1.3-4.91-.52-2.16-1.39-4.19-2.61-6.11-.12-.18-.17-.39-.17-.61v-1.34c0-.84-.29-.94-.84-.3-2.8,3.2-4.46,6.82-4.98,10.88-.2,1.59-.47,3.17-.82,4.74-.29,1.32-.5,2.9-.63,4.72-.26,3.68-1.21,7.07-3.04,10.32-.78,1.38-.54,2.49.74,3.32.45.3.27.99-.28,1.03l-1.92.14c-5.12-1.58-8.5-5.11-10.12-10.58-2.25-7.57-1.37-18.03,3.29-24.38.16-.22-.06-.51-.33-.43-3.36,1.1-8.68,1.12-10.92-2.03-3.11-4.39,1.46-9.72,5.69-11.3,1.96-.73,4.05,2.46,4.9,3.86.19.32.68.34.9.04.34-.47.4-1.08.17-1.84-.85-2.84-2.79-4.49-5.83-4.93,0,0,0-4.7,0-4.7,0-.95,7.78-2.15,8.67-2.26,3.16-.4,6.42-.4,9.55.24,3.78.78,7.34,2.75,9.5,5.93,1.69,2.49,2.57,5.05,1.7,7.51Z"/>
          <path class="cls-18" d="M404.63,53.65v4.7c-3.72,1.03-6.61,3.1-8.65,6.2-3.25.39-5.28,4.28-6.88,6.74-3.77,5.82-3.15,11.93,4.4,14.42.22.07.37.21.45.41.08.19.05.3-.08.32-3.7,4.25-6.23,9.07-7.59,14.46-.12.45-.07.47.13.04,2.27-4.83,5-9.67,8.19-14.51,1.47-.64,3.14-.8,5.02-.48.45.07.6.32.45.74-3.19,8.94-3.3,19.38,1.87,27.67,5.66,9.07,18.61,11.01,23.21-.36.22-.54.81-.85,1.39-.74,2.4.48,4.68.16,6.85-.97l3.51-.03c.24,0,.45.08.61.26,2.89,3.13,5.4,6.5,7.55,10.1l1.15,3.44-2.13-3.28c-.2-.32-.65-.4-.95-.17-.58.43-.61,1.05-.11,1.9,2.67,4.47,4.44,9.24,5.32,14.32.08.48-.04.82-.38,1.03-.24.15-.4.09-.47-.18-1.7-6.45-4.41-12.48-8.15-18.08-.27-.41-.93-.26-.97.23l-.42,4.49c-.06,0-.13.01-.19.02-.09.01-.13.07-.1.16,1.82,6.8,2.27,13.7,1.35,20.69-.12.91-.31.92-.56.04-2.43-8.52-6.01-16.56-10.74-24.12-.27-.44-.97-.22-.92.3.77,7.57.72,15.56-1.25,22.94-2.11,7.92-7.81,16.59-9.22,25.46-.24,1.49-.46,2.97-.67,4.45-.06.44-.17.45-.32.03-.68-1.93-1.36-3.82-2.08-5.71-1.76-4.63-4.52-9.78-5.98-13.74-2.88-7.8-3.18-15.61-.91-23.43.04-.15-.03-.3-.17-.37-.15-.07-.32-.03-.41.1-5.56,7.59-8.41,16.06-8.54,25.4,0,.07-.06.14-.13.14-.07.01-.14-.03-.16-.1-2.72-9.57-5.05-18.87-1.47-28.24.86-2.25.42-2.51-1.3-.8-8.68,8.59-11.91,22.15-11.22,33.83,0,.05-.03.1-.09.11-.06,0-.1-.02-.13-.07-1.34-3.85-2.6-7.08-4.48-11.3-5.85-13.1-7.17-25.84-1.04-39.07.03-.07-.06-.15-.13-.09-1.25,1.2-2.38,2.38-3.31,3.86-4.37,6.95-7.3,14.38-8.8,22.32-.05.24-.38.29-.5.08-4.39-7.6-5.84-15.67-4.33-24.2,1.09-6.15,3.69-11.63,7.81-16.44,1.31-1.53,2.32-2.73,3.02-3.6,1.08-1.34.84-1.62-.72-.86-6.27,3.07-11.3,8.62-15.44,13.98-.05.06-.14.08-.21.04-.07-.04-.1-.12-.07-.2,7.1-16.21,17.34-30.1,30.73-41.67,6.49-5.61,12.95-9.82,19.39-12.62h0Z"/>
          <path d="M421.92,70.74c-6.57,1.45-11.37-6.28-8.88-11.57,2.26-4.8,9.32-5.63,13.32-2.66,6.27,4.63,2.24,12.77-4.44,14.23h0Z"/>
          <path class="cls-3" d="M428.21,61.88c.09,3.3-3.11,6.05-7.14,6.13-4.02.08-7.36-2.53-7.44-5.83-.09-3.3,3.11-6.05,7.14-6.13,4.02-.08,7.36,2.53,7.44,5.83h0Z"/>
          <path d="M426.3,63.3c-.16,2.85-2.84,5.03-5.99,4.86-3.15-.17-5.57-2.61-5.41-5.46.16-2.85,2.84-5.03,5.99-4.86,3.15.17,5.58,2.61,5.41,5.46h0Z"/>
          <path class="cls-11" d="M451.11,62.2c-.2-.09-.32-.23-.36-.41-.09-.41.02-.67.35-.79-3.98-1.66-10.51-1.86-14.66-2-.26,0-.39.09-.38.3.09,1.18.05,2.51-.11,3.97.09.11.15.25.16.4.05.69-.07,1.37-.43,1.98-.27.46-.65.83-.92,1.24-.11.17-.18.34-.24.51,9.54-.91,18.86-.23,27.94,2.13-3.29-2.91-7.08-5.36-11.36-7.32Z"/>
          <path d="M419.77,60.47l3.26.17c2.93,2.95-.99,5.41-4.1,5.14-.24-.02-.47-.14-.63-.32-1.86-2.11-1.36-3.77,1.48-4.98h0Z"/>
          <path class="cls-18" d="M451.09,61c5.82,1.78,10.16,4.67,13.01,8.69.16.22.08.33-.25.31-.51-.03-.97-.19-1.38-.47-3.29-2.91-7.08-5.36-11.36-7.32-.2-.09-.32-.23-.36-.41-.09-.41.02-.67.35-.79h0Z"/>
          <path class="cls-15" d="M439.88,64.63c-.06.02-.13,0-.15-.05l-.02-.03c-.42-.91.96-2.15,3.09-2.77l.26-.07c2.13-.61,4.21-.37,4.63.54v.04s0,.1-.06.12l-7.75,2.22h0Z"/>
          <path class="cls-13" d="M395.98,64.55c-1.29,2.27-1.72,4.55-1.28,6.83,1.1,5.68,6.08,7.58,11.66,6.35.42-.09.54.05.35.43-4.34,8.49-6.21,20.76-.79,29.13,4.51,6.97,15.74,10.24,20.85,1.61.15-.24.31-.26.5-.05,1.72,1.83,3.77,2.99,6.13,3.47-2.17,1.13-4.46,1.45-6.85.97-.58-.11-1.18.2-1.39.74-4.6,11.37-17.55,9.42-23.21.36-5.17-8.28-5.06-18.73-1.87-27.67.15-.41,0-.66-.45-.74-1.88-.32-3.55-.16-5.02.48h-.73c.13-.02.16-.13.08-.32-.08-.2-.24-.34-.45-.41-7.55-2.49-8.17-8.61-4.4-14.42,1.59-2.46,3.63-6.35,6.88-6.74h0Z"/>
          <path class="cls-13" d="M383.8,70.14c.1.1.1.27,0,.37l-6.7,6.34c-.11.1-.28.1-.38,0l-.02-.02c-.1-.1-.1-.27,0-.37l6.7-6.34c.11-.1.28-.1.38,0l.02.02h0Z"/>
          <path class="cls-11" d="M460.57,70.33c-8.53-1.54-16.49-1.55-25.72-1.21.04.28.07.56.1.84,1.85.29,3.52.81,5.01,1.57.74.38.92,1.04.42,1.55l-1.14,1.16c-.24.24-.15.3.26.17,6.64-2.03,13.65-3.29,21.04-3.79.84-.06.85-.16.04-.3Z"/>
          <path class="cls-24" d="M425.1,71.74c-2.81,3.38-8.77,3.93-11.11-.43-.2-.37.23-.76.6-.54,3.29,1.98,6.73,2.22,10.31.72.43-.18.5-.09.21.26h0Z"/>
          <path class="cls-23" d="M431.06,107.39c-5.15-4.05-5.65-14.31-4.59-20.21.03-.17-.17-.28-.31-.18-.21.16-.37.42-.48.79-1.96,6.65-1.98,13.12-.04,19.38.07.22.01.41-.16.55-2.35,2.03-5.22,2.77-8.61,2.22l1.92-.14c.55-.04.73-.73.28-1.03-1.27-.83-1.52-1.94-.74-3.32,1.83-3.24,2.78-6.64,3.04-10.32.13-1.82.34-3.39.63-4.72.35-1.57.62-3.15.82-4.74.52-4.06,2.18-7.69,4.98-10.88.56-.64.84-.54.84.3v1.34c0,.22.06.43.17.61,1.23,1.92,2.1,3.95,2.61,6.11.66,2.76,1.09,4.4,1.3,4.91.75,1.82,1.75,3.86,3.01,6.11,2.47,4.4,2.28,9.99-3.37,11.8-.85.28-1.29.74-1.32,1.41h0Z"/>
          <path class="cls-31" d="M370.77,89.54s-.13.05-.17,0h-.01c-.31-.3,2.27-3.38,5.75-6.88l.12-.11c3.49-3.51,6.56-6.11,6.87-5.82h.01c.06.06.06.14,0,.18l-12.57,12.63h0Z"/>
          <path class="cls-15" d="M164.39,81.17c-2.75-1.12-5.49-1.72-8.23-1.79-.19-.11-.38-.17-.59-.19-.2-.02-.29-.12-.27-.32l.03-.3c.01-.16.14-.28.3-.3,7.16-.58,12.77,1.95,16.81,7.57.29.41.3.74.01.98-.17.14-.41.12-.55-.04-1.32-1.51-2.81-2.9-4.49-4.17-1.09-.83-2.1-1.31-3.02-1.45h0Z"/>
          <path class="cls-23" d="M446.21,87.6c2.75,5.02,4.64,9.8,2.83,15.06-.87,2.54-2.62,4.01-5.26,4.4-.29.05-.38-.07-.28-.33,3.47-8.74-.77-15.32-4.5-22.98-.35-.74-.06-1.61.69-1.99l4.89-2.48c.23-.11.5.05.48.3-.26,3.47.12,6.15,1.14,8.02h0Z"/>
          <path class="cls-30" d="M156.16,79.38c2.74.07,5.48.67,8.23,1.79-.72.24-1.53.27-2.44.09-1.07-.22-1.85-.32-2.34-.31-11.86.22-22.88,3.27-33.07,9.16-.12.07-.23.08-.33.03-.17-.07-.19-.18-.04-.29,8.79-7.22,18.47-10.18,30-10.47h0Z"/>
          <path class="cls-22" d="M207.82,83.18c-.29-.25-.57-.52-.87-.77-.89-.73-1.8-1.43-2.71-2.1-.22-.09-.47-.06-.63.12-.2.22-.18.55.03.75,3.96,3.76,6.96,8.14,9,13.14.58,1.43,1.05,2.42,1.41,2.99.91,1.45,1.12,1.36.64-.27-1.49-5.01-3.79-9.64-6.87-13.87Z"/>
          <path class="cls-22" d="M194.18,81.71c4.43.97,12.28,5.33,13.11,10.22.06.38-.45.57-.67.26-4.62-6.44-10.17-8.57-17.96-10.13-.22-.04-.37-.24-.35-.45.01-.22.19-.39.41-.4,1.72-.09,3.54.07,5.46.49h0Z"/>
          <path class="cls-15" d="M173.98,83.13c6,.2,13.76,4.61,15.76,9.63.06.15,0,.32-.15.41-.14.08-.33.05-.43-.07-4.05-4.65-9.15-7.74-15.28-9.26-.18-.05-.31-.22-.28-.4.03-.18.19-.32.38-.31h0Z"/>
          <path class="cls-31" d="M393.87,86.45h.73c-3.19,4.83-5.92,9.67-8.19,14.5-.2.43-.25.41-.13-.04,1.36-5.39,3.89-10.21,7.59-14.46h0Z"/>
          <path class="cls-31" d="M371.7,99.63h-.01l-.1-.11c-.2-.19,2.42-3.07,5.84-6.43l.1-.09c3.43-3.36,6.36-5.93,6.57-5.74l.11.1h0s-12.5,12.27-12.5,12.27h0Z"/>
          <path class="cls-30" d="M223.76,102.75c-1.25-2-2.54-3.96-3.88-5.89,2.16,5.17,3.78,10.57,4.86,16.19.24,1.28.42,2.55.54,3.82,0,.09.08.15.17.16.08,0,.16-.05.18-.14.4-1.84.44-3.73.13-5.65-.44-2.79-1.11-5.65-1.99-8.48Z"/>
          <path class="cls-31" d="M377.83,98.86c-.17-.15,2.04-2.83,4.95-5.99,2.9-3.17,5.38-5.62,5.55-5.47.17.15-2.04,2.83-4.95,5.99-2.9,3.17-5.39,5.62-5.55,5.47h0Z"/>
          <path class="cls-22" d="M124.75,95.65c-.49.28-.98.41-1.46.41-.26,0-.37-.32-.16-.47,4.34-3.09,8.92-5.77,13.75-8.05.13-.06.29-.02.38.09.08.11.07.27-.03.37-.68.64-1.48,1.23-2.42,1.79-3.33,1.98-6.68,3.93-10.04,5.86h0Z"/>
          <path class="cls-22" d="M141.55,92.77l6.23,1.32c.2.04.35.22.33.43,0,.2-.16.36-.37.39-2.64.34-5.14-.12-7.49-1.38-.81-.44-.86-1.56-.08-2.05,5.67-3.55,15.33-4.03,21.85-3.41.12.01.24.09.38.25.06.07.05.11-.06.11-7.19-.11-14.14,1.07-20.87,3.54-.4.15-.35.71.06.8h0Z"/>
          <path class="cls-5" d="M226.46,133.04c.05.06.07.16.08.29,0,.17.09.28.26.34.24.07.45.05.65-.08.08.87.03,1.35.52,2.11,1.84,2.87,3.4,5.9,4.69,9.07-9.61-16.67-21.93-32.37-40.4-39.91-9.7-3.96-19.66-4.89-29.86-2.8-3.38.7-7.46,2.77-11.04,2.65-11.43-.39-21.8,2.79-31.12,9.55.81-1.17,1.79-2.07,2.92-2.71,1.26-.72,2.12-1.28,2.58-1.69,10.95-9.74,25.49-14.36,40.31-14.11,8.77.15,16.56,3.26,24.84,6.25.18.07.32.18.41.34.34.6.89.91,1.64.93.17,0,.33.07.46.18,1.66,1.45,3.57,2.47,5.71,3.06.17.05.26-.02.27-.19.03-.41.23-.72.61-.91.19-.1.29-.26.27-.47l-.04-.71c-.01-.19.08-.32.26-.38.77-.26,1.21-.81,1.32-1.67.1-.72,1.1-.86,1.41-.21.53,1.1,1.3,2,2.3,2.69,1.52,1.05,2.4,1.67,2.61,1.88,2.1,1.98,4.06,4.08,5.88,6.29,1.72,2.08,3.54,4.82,5.44,8.21,2.12,3.79,4.68,7.44,6.06,11.57.12.36.44.51.95.43h0Z"/>
          <path class="cls-31" d="M374.18,112.58c-.04.05-.13.06-.18.03l-.03-.02c-.4-.29,1.69-3.68,4.67-7.58l.08-.11c2.97-3.9,5.71-6.83,6.11-6.55l.03.02c.06.04.07.12.03.18l-10.7,14.03h0Z"/>
          <path class="cls-31" d="M370.26,110.27c-.13-.09,1.13-1.87,2.8-3.97,1.67-2.1,3.13-3.72,3.27-3.62.13.09-1.13,1.87-2.8,3.97-1.67,2.1-3.13,3.72-3.27,3.62h0Z"/>
          <path class="cls-16" d="M364.26,124.32c-.79-6.72.29-13.55,4.28-19.17.03-.06.11-.08.22-.06.15.02.19.1.12.23-1.57,2.99-2.72,6.11-3.42,9.37-.63,2.93-.63,6.42-.82,9.63,0,.09-.08.17-.19.18-.1,0-.18-.07-.19-.17h0Z"/>
          <path class="cls-22" d="M213.15,117.01c-3.5-4.18-6.33-7.43-11.24-11.55-.14-.11-.12-.2.06-.24l.31-.08c.06-.01.13,0,.18.03,5.51,3.8,9.89,8.56,13.15,14.3.05.09.03.2-.06.27-.08.07-.2.06-.28,0-.85-.74-1.61-2.11-2.12-2.72h0Z"/>
          <path class="cls-14" d="M232.16,165c-2.64-6.29-6.82-11.71-12.55-16.28-16.91-13.44-35.54-16.92-55.9-10.46-4.76,1.51-9.79,4.01-14.53,6.29-.28.14-.75.18-1.41.14-.32-.03-.63,0-.95.09-10.81,3.5-19.07,10.03-24.8,19.59-2.66,4.44-4.87,9.08-6.64,13.92,0,.03-.03.04-.06.03-.03,0-.04-.03-.04-.06,1.18-11.3,3.75-22.3,7.71-33,9.05-24.41,33.65-45.05,62.06-37.71,22.16,5.72,36.16,25.54,46.03,44.08,4.02,7.57,7.72,15.69,13.45,22.21,2,2.28,4.67,4.21,8.01,5.78.1.04.06.18-.05.18-7.58-.45-15.74-9.53-20.32-14.81h0Z"/>
          <path class="cls-15" d="M227.44,133.58c-.2.13-.41.16-.65.08-.17-.05-.25-.17-.26-.34,0-.14-.03-.23-.08-.29-.26-9.86-3.5-18.51-9.7-25.96-.12-.14-.06-.35.11-.42.13-.05.26-.06.42-.04.12.02.24.08.37.18,4.91,3.84,6.82,8.23,8.32,14.69,1.12,4.84,1.61,8.88,1.46,12.11h0Z"/>
          <path class="cls-30" d="M178.81,109.5c-.66-.15-1.3-.31-1.89-.49-.08-.03-.13-.1-.12-.18,0-.09.08-.15.17-.15,4.74-.09,8.77,1,13.38,2.7,9.15,3.36,16.08,9.45,20.78,18.27.24.44-.21.93-.69.77-.33-.11-.6-.41-.8-.9-.17-.43-.35-.75-.52-.97-7.67-9.88-17.78-16.22-30.3-19.04h0Z"/>
          <path class="cls-27" d="M365.82,142.4c.56-.16.65-.12.28.11-.61,1.55-.81,3.07-.64,4.57.05.47.17.48.37.05.61-1.36.7-2.9.27-4.62,2,.47,1.86,4.97,2.71,6.53.49.9.8,1.53.92,1.91,2.3,7.11,5.67,13.73,10.1,19.84,1.73,2.38,3.45,4.86,5.15,7.45.24.36.81.21.82-.22l.2-5.15c-.6-5.57-.47-11.49.4-17.75,1.55,2.06,2.76,4.2,3.62,6.43,1.11,2.84,2.46,4.51,4.03,6.9,1.97,3.01,4.55,5.55,6.71,8.49.47.64,1.5.16,1.29-.59-.58-2.05-.67-4.13-.27-6.24.03-.13.2-.16.28-.05l12.14,17.07c.29.4.93.16.87-.32l-1.11-8.56,2.66,5.13c.16.3.26.29.31-.05,1.16-8.32,3.86-16.32,8.11-24.01l2.1,8.66c.02.09.06.16.1.2.03.03.06.06.08.09.16.18.24.32.26.41l2.28,10.12-3.04,3.94c-.31.39-.23.49.24.28,1-.44,1.82-1.2,2.47-2.27.41,0,.7.03.87.09.11.05.15.25.11.61-.59,5.4-1.04,10.79-1.33,16.15l-4,8.39c-.03.05-.09.08-.15.07-.06-.02-.1-.08-.09-.14.76-4.86.39-9.65-1.11-14.36-.13-.42-.77-.38-.84.05-1.61,9.42-6.62,15.94-13.48,22.48-.17.15-.43-.02-.34-.23,1.47-3.32,2.33-6.79,2.56-10.42.03-.43-.54-.61-.79-.26-3.63,5.2-8.5,10.21-14.45,12.87-.23.1-.45-.14-.33-.35,3.5-5.9,4.65-12.26,3.47-19.08-.05-.3-.47-.36-.6-.08-2.68,5.63-6.35,10.57-11.02,14.82-.15.14-.38,0-.33-.19,3.29-13.28-3.11-24.9-14.71-31.79-.3-.18-.64.14-.49.44l2.14,4.14c2.92,11.92,1.79,23.36-3.4,34.29-.09.2-.24.34-.45.43-.68.29-.97.68-.89,1.18-1.5,2.13-3.02,4.21-4.53,6.24-6.09,8.18-14.24,13.78-24.22,16.81-3.38,1.03-7.67,1.76-10.7,3.49-.38.22-.25.78.2.82,13.85,1.18,27.43-7.68,34.69-18.34.45-.03.77-.34.99-.93.11-.3.26-.32.45-.06.27.37.4.76.41,1.2,0,.14.06.26.17.34.16.13.32.1.48-.07.14-.15.31-.11.39.07.08.19.05.47-.08.64l-3.26,4.45c-9.49,9.9-22.5,15.76-36.12,18.29-13.47,2.51-26.64,3.51-40.03,4.51-12.16.91-27.84,2.54-36.93-5.99-4.34-4.08-4.49-7.97-.53-12.36.22-.24-.05-.6-.36-.48-5.37,2.11-9.88,5.34-13.54,9.69-.19.22-.56.09-.56-.2,0-8.75,2.67-16.46,8.04-23.11,1.48-1.84,3.13-3.3,4.16-5.62.17-.37.06-.47-.32-.3-7.05,3.16-13.57,10.2-17.32,16.38-.21.34-.33.32-.38-.07-1.09-9.69,1.94-22.93,10.27-29.45,2.6-2.03,5.34-3.88,8.22-5.52.75-.43,1.2-.83,1.38-1.21.49-1.09-.57-2.24-1.75-1.88-6.36,1.96-11.06,5.37-16.15,9.48-.22.18-.53-.05-.42-.3,1.49-3.3,4.16-6.53,6.34-9.15,7.28-8.78,20.67-15.59,31.4-17.96,8.88-1.97,21.34-2.42,29.16-4.01,17.89-3.61,35.27-14.98,41.9-32.07,1.47-3.78,2.97-7.55,4.51-11.3,3.11-7.55,7.09-14.71,11.96-21.46.17-.24.57-.07.49.22-2.84,10.67-1.46,21.85,5.74,30.81.54.67,1.11.99,1.75.97h0Z"/>
          <path class="cls-14" d="M446.45,110.3c-.4.39-1.01.55-1.85.48.62-.32,1.24-.48,1.85-.48h0Z"/>
          <path class="cls-31" d="M383.36,133.64c.65-7.88,2.19-15.49,5.67-22.72.04-.07.09-.11.17-.1h.18s0,.04-.02.11c-2.72,6.52-4.37,13.3-4.98,20.34-.35,4.07-.56,7.78-.64,11.11-.04,1.32-.13,1.33-.27.01-.32-2.82-.36-5.73-.1-8.75h0Z"/>
          <path class="cls-31" d="M380.48,127.6c-.24,1.18-.33,1.16-.26-.03.26-4.49,1.7-11.23,4.76-15.21.19-.25.22-.23.08.05-1.37,2.78-2.46,5.45-3.15,8.6-.51,2.26-.98,4.46-1.43,6.6h0Z"/>
          <path class="cls-22" d="M175.23,114.37l-1.34-.48c-.03-.31.17-.55.62-.72.24-.09.54-.11.89-.07,7.28.91,13.63,2.94,19.02,6.07,8.16,4.74,14.98,10.89,20.46,18.44,1.18,1.63,2.08,3.35,2.67,5.17.03.08-.01.16-.09.2-.08.03-.17,0-.22-.06-3.14-4.55-6.65-8.7-10.52-12.44-9.17-8.84-19.66-14.21-31.49-16.11h0Z"/>
          <path class="cls-30" d="M173.89,113.89l1.34.48c-12,2.08-22.8,6.08-32.42,12.01-.44.27-.72.41-.85.43-.78.07-.93-.19-.43-.78,4.83-5.8,10.9-9.63,18.23-11.47,4.41-1.11,9.43-.87,14.13-.66h0Z"/>
          <path class="cls-31" d="M377.14,128.06c-.02.1-.12.16-.21.14h-.03c-.1-.03-.16-.12-.14-.21l2.4-10.94c.02-.1.12-.16.21-.14h.03c.1.03.16.12.14.21l-2.4,10.94h0Z"/>
          <path class="cls-16" d="M157.12,121.4c.95-.28,1.86-.39,2.73-.34.27.01.31.39.06.46-11.9,3.48-20.25,9.86-27.81,19.58-4.08,5.25-7.08,10.18-9,14.79-3.82,9.15-4.09,9.05-.79-.3,3.22-9.15,8.9-17.31,17.01-24.48,2.75-2.43,5.51-4.38,8.28-5.85,3.01-1.6,6.19-2.89,9.53-3.86h0Z"/>
          <path class="cls-28" d="M446.21,126.08c1.39,2.7,2.39,5.54,3.01,8.51.16,1.88.48,5.32-.73,6.91-.49.64-1.1,1.2-1.82,1.69-.17.11-.32.09-.44-.07-.29-.4-.63-.64-1.02-.71-1.7-5.65-4.12-11.01-7.28-16.07l.42-4.49c.05-.49.7-.64.97-.23,3.74,5.6,6.46,11.63,8.15,18.08.07.27.22.33.47.18.34-.21.47-.55.38-1.03-.88-5.08-2.65-9.86-5.32-14.32-.5-.84-.47-1.47.11-1.9.31-.23.75-.15.95.17l2.13,3.28h0Z"/>
          <path class="cls-22" d="M177.92,123.7c-4.52-.1-9,.24-13.47,1-.58.1-.81-.07-.68-.51.04-.14.15-.26.3-.3,6.48-1.81,13.01-1.96,19.57-.45.15.03.24.16.22.3-.01.14-.13.25-.28.26-1.89.07-4.17-.28-5.67-.3h0Z"/>
          <path class="cls-17" d="M445.06,122.64c7.93,11.78,11.75,24.66,11.47,38.65,0,.02-.03.03-.03,0l-5.93-17.61c-.12-.36-.29-.38-.49-.06-.2.3-.22.78-.03,1.44-.15-2.98-.15-6.01,0-9.07.03-.53-.24-1-.82-1.41-.62-2.97-1.62-5.8-3.01-8.51l-1.15-3.44h0Z"/>
          <path class="cls-20" d="M399.21,131.58c-.41-.17,0-2.01.91-4.09.92-2.09,2-3.65,2.41-3.47.41.17,0,2.01-.91,4.09-.92,2.09-2,3.65-2.41,3.47h0Z"/>
          <path class="cls-20" d="M421.67,131.15c.19-1.32.51-2.58.96-3.77.14-.36.69-.28.72.1.08,1.22.04,2.48-.12,3.77-.72,5.74-1.57,11.42-2.58,17.03-.04.22-.24.37-.46.36-.22,0-.41-.17-.44-.39-.17-1.35-.15-2.78.08-4.27.63-4.28,1.25-8.56,1.84-12.84h0Z"/>
          <path class="cls-10" d="M414.75,132.41c-.03-.1-.01-.2.06-.3.55-.75.9-1.59,1.04-2.54.01-.09.08-.14.19-.16.17-.02.24.05.22.22-.61,4.99-1.49,9.95-2.62,14.86-.17.74-.1,2.08-.73,2.95-.27.37-.37.34-.31-.11l2.14-14.92h0Z"/>
          <path class="cls-6" d="M348.35,139.49c-.28-.06,0-2.17.61-4.71.61-2.53,1.34-4.54,1.61-4.48.28.06,0,2.17-.61,4.71-.61,2.53-1.34,4.54-1.61,4.48h0Z"/>
          <path class="cls-6" d="M351.73,138.98c-.23-.05.05-2.08.63-4.52.59-2.44,1.26-4.38,1.49-4.33.23.05-.05,2.08-.63,4.52-.59,2.44-1.26,4.38-1.49,4.33h0Z"/>
          <path class="cls-26" d="M386.01,172.87l-.2,5.15c-.01.43-.59.57-.82.22-1.71-2.59-3.43-5.07-5.15-7.45-4.44-6.11-7.8-12.72-10.1-19.84-.12-.38-.42-1.01-.92-1.91-.85-1.56-.71-6.05-2.71-6.53.38-.24.29-.28-.28-.11.47-4.29,1.75-8.25,3.86-11.88.1-.18.39-.11.4.09.38,9.74,2.74,16.73,7.33,26.27,2.6,5.4,5.23,10.87,7.88,16.42.15.3.61.24.66-.09l.05-.34h0Z"/>
          <path class="cls-20" d="M414.81,132.1c-.08.1-.1.2-.06.3-1.3,4.47-2.19,8.92-2.65,13.38-.06.56-.72.84-1.19.51-.13-.09-.18-.38-.14-.85.4-4.41,1.21-8.82,2.44-13.24.17-.61.77-1.02,1.43-.97.16,0,.22.3.17.87h0Z"/>
          <path class="cls-16" d="M416.84,143.43c.29-2.37.06-6.14,1.14-8.73.02-.05.04-.05.04,0,.08.76-.29,1.45-.29,2.18.03,6.72-.6,13.39-1.9,19.99-.26,1.32-.47,3.61-1.02,4.95-.58,1.43-.75,1.39-.51-.13.95-6.03,1.79-12.11,2.53-18.25h0Z"/>
          <path class="cls-18" d="M449.22,134.58c.58.41.85.87.82,1.41-.15,3.07-.15,6.09,0,9.07,1.6,7.44,1.69,14.57.26,21.38-.22,1.03-.42,1.03-.61,0l-4.48-24.03c.39.07.73.31,1.02.71.12.17.26.19.44.07.72-.49,1.33-1.05,1.82-1.69,1.21-1.59.89-5.03.73-6.91h0Z"/>
          <path class="cls-5" d="M232.16,165c-6.13-5.7-10.21-9.38-12.25-11.03-16.13-13.07-35.57-17.34-55.8-10.28-14.88,5.2-25.59,14.58-32.13,28.15-2.61,5.43-4.8,11.79-6.57,19.09.54-7.49,1.43-14.88,2.68-22.18.22-1.24.19-2.79-.07-4.66,4.89-7.71,11.31-13.86,19.25-18.46.48-.28.64-.6.48-.96.66.05,1.14,0,1.41-.14,4.74-2.28,9.77-4.78,14.53-6.29,20.36-6.46,38.99-2.97,55.9,10.46,5.73,4.56,9.92,9.99,12.55,16.28h0Z"/>
          <path class="cls-26" d="M429.18,197.58c.29-5.36.74-10.75,1.33-16.15.03-.36,0-.56-.11-.61-.17-.06-.46-.09-.87-.09,3.2-3.55,6.06-7.09,6.97-11.87.02-.11-.05-.24-.17-.26-.12-.03-.24.02-.29.14-1.48,3.65-3.54,7-6.18,10.05l-2.28-10.12c-.02-.09-.1-.22-.26-.41-.02-.03-.05-.05-.08-.09-.05-.04-.08-.11-.1-.2l-2.1-8.66c.68-1.78,1.42-3.61,2.25-5.48,2.32-5.28,3.08-10.39,2.89-16.01,0-.11.08-.22.19-.24.11-.03.23.03.27.14,1.25,3.13,2.48,6.27,3.68,9.42,2.67,7.05,3.29,11.97.77,18.65-.13.36.17.72.56.66.08-.01.18-.11.31-.28,2.69-3.43,4.39-7.24,5.09-11.45,0-.04.04-.07.08-.07.04,0,.08.03.08.07,1.4,7.74.15,14.98-3.76,21.75-.15.25.17.51.4.33,3.84-3.01,6.39-6.8,7.66-11.39.08-.3.18-.31.29-.01,1.71,4.58,2.74,9.3,3.1,14.15.03.36.52.49.72.19,1.64-2.38,2.97-4.93,3.98-7.63.17-.47.31-.46.4.03.16.82.19,1.89.11,3.2-.51,7.77-1.5,16.73-5.58,23.63-.15.26-.55.13-.54-.16.25-3.98-.31-7.88-1.68-11.71-.47-1.31-1.62-2.14-1.87-3.64-.44-2.6-.77-4.54-.97-5.82-.02-.11-.12-.2-.24-.2s-.22.08-.24.2c-.1.64-.2,1.53-.29,2.68-.76,8.97-4.56,16.31-11.39,22.03-.25.21-.63-.02-.55-.33.79-3.09,1.18-6.22,1.15-9.41,0-.31-.44-.39-.56-.11l-2.17,5.08h0Z"/>
          <path class="cls-26" d="M413.95,178.23l1.11,8.56c.06.49-.58.72-.87.32l-12.14-17.07c-.08-.11-.25-.07-.28.05-.4,2.11-.31,4.2.27,6.24.22.76-.82,1.24-1.29.59-2.16-2.94-4.73-5.48-6.71-8.49-1.57-2.39-2.92-4.06-4.03-6.9-.86-2.23-2.07-4.37-3.62-6.43.29-2.24.97-5.3,2.06-9.17.4-1.4.84-2.6,1.35-3.62.22-.44.34-.42.36.07.4,10.84,4,20.52,10.77,29.07.16.2.23.18.2-.07-.79-7.25-1.52-13.92.15-21.14.09-.39.2-.39.34-.02.29.75.22,1.78.37,2.39,1.25,5.16,2.86,9.47,4.82,12.91,2.52,4.43,4.89,8.66,7.11,12.69h0Z"/>
          <path class="cls-10" d="M366.1,142.51c.43,1.72.34,3.26-.27,4.62-.19.43-.32.41-.37-.05-.17-1.49.03-3.01.64-4.57h0Z"/>
          <path class="cls-24" d="M356.44,147.04c.07-.78.52-2.42.82-3.16t0,0c-.04.93-.29,1.87-.26,2.77.29,10.98-.26,23.24-5.65,32.83-1,1.78-1.12,1.72-.37-.17,4.03-10.09,4.46-21.44,5.45-32.27h0Z"/>
          <path class="cls-14" d="M208.25,192.58c.33.07.4-.27.24-1.03-.06-.26.3-.39,1.07-.36l7.46,1.22c.52.08.91-.43.67-.89-1.65-3.13-17.46-6.29-21.11-6.8-4.28-.6-9.07-.42-13.61-.42-.07,0-.13-.05-.14-.12,0-.07.04-.14.11-.16,9.5-2.29,19.03-2.93,28.49-5.55.07-.02.13-.06.17-.11.37-.45.15-.66-.65-.64-4.3.14-8.59.14-12.88,0-7.73-.24-15.1.9-22.13,3.42-1.82-.09-3.79.19-5.89.83-6.26,1.2-12.03,3.56-17.28,7.09-1.53,1.03-3.5,2.8-5.28,4.14-.24.18-.32.12-.26-.16,3.86-16.57,15.74-29.56,32.87-33.5.26-.06.27-.16.05-.3-.22-.13-.45-.17-.72-.12-7,1.26-12.4,3.43-19.15,7.07-4.48,2.42-9.1,4.68-12.96,7.59-6.8,5.15-12.42,11.32-16.83,18.49-.01.03-.06.04-.08.03-.04-.01-.05-.04-.04-.07,1.77-7.59,4.12-15.11,8.06-21.59,15.04-24.73,48.13-33.35,73.2-17.26,9.58,6.15,19.48,17.21,26.73,23.73,2.57,2.32,5.61,4.28,9.13,5.89.29.13.3.28.03.45-2.88,1.68-5.54,3.65-7.99,5.89-.38.35-.98.32-1.34-.05-2.22-2.38-4.79-4.32-7.72-5.83-.1-.05-.22-.03-.29.06-.06.09-.06.21.02.28l6.82,6.82c.17.17.17.44.01.62l-4.92,5.55c-.13.14-.34.16-.48.03-2.49-2.27-5.22-4.18-8.22-5.74-1.87-.98-2.06-.75-.56.68.15.15.78.63,1.87,1.44,2.15,1.59,4.07,3.4,5.77,5.43.14.17.15.35.04.54l-3.18,5.3c-.24.39-.81.44-1.11.08-4.79-5.71-10.79-9.7-18.01-11.99h0Z"/>
          <path class="cls-30" d="M212.86,160.03c-10.84-7.25-25.36-11.32-38.57-8.68-.1.02-.19-.04-.23-.14-.03-.09.02-.2.12-.23,14.42-5.6,28.29-1.59,38.99,8.68.09.09.1.22.02.32-.08.09-.22.11-.33.05h0Z"/>
          <path class="cls-24" d="M338.09,166.25c-.38-.05-.7.01-.97.2-.12.08-.2.05-.22-.09l-.1-.54c3.56-5.29,6.48-11.02,8.73-17.19,0-.02.03-.03.04-.03.02,0,.03.01.03.03.1,5.26-4.48,13.37-7.51,17.62h0Z"/>
          <path class="cls-21" d="M365.67,158.2c-.38,0-.7-2.05-.72-4.59-.02-2.54.26-4.6.63-4.6.38,0,.7,2.05.72,4.59.02,2.54-.26,4.6-.63,4.6h0Z"/>
          <path class="cls-24" d="M322.49,171.04c-1.95,1.19-2.03,1.08-.24-.32,7.45-5.85,12.94-12.32,17.61-20.27.05-.08.15-.11.24-.07.09.03.13.13.1.22-2.78,8.39-10.26,15.92-17.71,20.46h0Z"/>
          <path class="cls-25" d="M87.39,159.09c-.12,0-.23-1.34-.23-3s.1-3,.22-3,.23,1.34.23,3-.1,3-.22,3h0Z"/>
          <path class="cls-24" d="M428.79,164.98c1.65-3.28,2.94-6.85,3.86-10.74.08-.34.2-.61.38-.81.11-.13.32-.04.31.12-.41,4.21-1.77,8.11-4.07,11.68-.08.12-.24.16-.36.09-.13-.07-.17-.22-.11-.34h0Z"/>
          <path class="cls-22" d="M141.13,169.83c4.46-6.93,10.72-12.19,18.79-15.8.42-.18.73-.23.93-.14.2.09.2.18.01.29-9.73,5.38-17.33,12.8-22.81,22.27-.11.2-.23.2-.36.01-.06-.09-.08-.19-.04-.29.83-2.29,1.89-3.88,3.47-6.34h0Z"/>
          <path class="cls-22" d="M192.83,155.62c-15.42-1.61-29.82,1.32-41.93,10.45-.17.13-.4-.07-.29-.25,3.93-6.36,14.71-9.78,21.88-11.08,6.75-1.22,13.54-1.01,20.38.65.06.01.1.07.09.14-.01.06-.07.1-.13.09h0Z"/>
          <path class="cls-29" d="M223.88,173.24c.07.08.07.2,0,.28-.07.07-.2.08-.28.02-7.85-5.87-15.46-10.05-25.69-10.34-.17,0-.31-.07-.43-.2l-.12-.13c-.16-.17-.06-.44.17-.49,9.48-1.84,20.21,3.83,26.36,10.86h0Z"/>
          <path class="cls-18" d="M359.01,169.2c.24,3.11.08,5.96-.47,8.55-.73,1.74-1.39,3.47-1.98,5.2-.55,1.6-2.12,3.58-4.73,5.93-.08.07-.09.2-.02.28.07.09.19.11.29.05l3.64-2.33-1.75,3.78c-1.3,1.53-2.58,3.34-3.84,5.41-1.2,1.98-3.61,4.22-7.23,6.72-.21.14-.08.47.18.43.65-.1,1.34-.34,2.07-.71,6.71-3.36,11.74-8.32,15.09-14.87.26-.53,1.07-.43,1.2.14.17.74.09,1.63-.26,2.68-1.14,4.64-2.93,8.16-5.37,10.55-.14.14-.15.36,0,.49.13.14.36.16.51.03,3.32-2.71,5.74-6.02,7.27-9.94,1.48-3.86,2.33-7.79,2.51-11.78.02-.78.24-1.14.65-1.05.13.03.24.14.24.28l.24,4.2c-.54,19.09-15.1,29.92-33.23,32.12-1.6.2-9.65.65-10.28-1.67-.08-.32.01-.57.29-.75l10.03-6.68c.18-.12.09-.39-.13-.39-.28,0-.58.05-.93.16-5.97,1.88-12.07,2.52-18.31,1.93-6.51-.62-11.53-6.58-7.18-12.67.15-.22-.05-.51-.31-.44-1.68.44-3.41.72-5.21.86-5.05.39-8.05-1.57-8.98-5.88,2.5-2.36,4.57-3.91,6.19-4.68,6.17-2.88,12.31-5.84,18.42-8.86,3.4-1.68,6.54-3.77,9.39-6.29.69-.6,1.09-.46,1.19.43.01.14-.1.34-.36.63-.19.21-.33.39-.43.56-4.02,6.53-8.56,11.26-13.63,14.18-4.84,2.79-4.67,3.12.52.99,2.55-1.05,5.4-2.68,8.54-4.9l6.81-5.21c4.71-3.5,8.52-7.6,11.4-12.31.08-.13.24-.18.38-.11.14.07.2.22.15.36-3.29,8.26-7.86,13.8-13.26,20.39-1.92,2.35-4.85,4.59-7.23,5.74-3.32,1.61-3.22,1.84.3.7,13.04-4.25,25.12-13.11,28.37-26.72.03-.14.17-.24.33-.22.15.02.26.14.26.29,0,1.85-.28,3.72-.81,5.61-1.94,6.86-5.24,12.9-9.9,18.14-2.67,2.99-5.92,5.49-9.74,7.49-.1.05-.15.13-.14.23,0,.07,0,.15,0,.22,0,.05.04.08.09.07,5.62-1.82,9.73-5.1,14.31-9.04.17-.15.29-.12.38.08.09.2.06.39-.1.56-3.06,3.43-6.51,6.26-10.36,8.49-.14.08-.19.26-.13.4.07.15.24.21.4.16,7.2-2.67,13.16-6.88,17.87-12.65,2.57-3.14,4.16-6.03,4.75-8.66.7-3.13,1.39-5.35,2.05-6.68h0Z"/>
          <path class="cls-9" d="M336.79,165.82l.1.54c.03.14.1.17.22.09.27-.18.59-.25.97-.2-1.43,2.26-3.08,4.35-4.94,6.28-.72.74-1.32,1.41-1.8,2.03-.56.7-1.13,1.41-1.71,2.12l-6.81,5.21c-.32.11-.54.02-.66-.27-.05-.12-.02-.26.07-.35.8-.84,1.66-1.62,2.58-2.34,1.25-.95,2.12-1.69,2.63-2.2,3.38-3.38,6.5-7.02,9.33-10.9h0Z"/>
          <path class="cls-8" d="M353.98,190.65l1.75-3.78c1.62-2.66,2.56-5.7,2.81-9.12.55-2.59.71-5.45.47-8.55l.47-2.61c.06-.3.5-.32.57-.01,1.67,7.4.82,14.36-2.54,20.87-.58,1.13-1.76,2.2-3.52,3.21h0Z"/>
          <path class="cls-24" d="M429.53,180.73c-.65,1.07-1.47,1.83-2.47,2.27-.47.2-.54.11-.24-.28l3.04-3.94c2.64-3.05,4.7-6.4,6.18-10.05.04-.11.17-.17.29-.14.12.03.19.15.17.26-.91,4.78-3.77,8.32-6.97,11.87h0Z"/>
          <path class="cls-22" d="M160.64,181.1c-.23.18-.45.29-.67.32-.34.05-.56-.34-.33-.59,8.31-8.95,26.56-10.78,38.05-9.83.09,0,.13.05.13.14v.21s-.04.07-.09.07c-12.14-.32-27.43,1.95-37.09,9.67h0Z"/>
          <path class="cls-8" d="M366.11,179.79c-.19,3.99-1.03,7.92-2.51,11.78-.71,1.07-.88.64-.53-1.29.02-.09.15-.39.38-.91.16-.35.12-.7-.13-1.03-.13-.18-.19-.39-.17-.61l.15-1.88c1.02-4.74,1.27-9.6.75-14.59-.01-.11.06-.2.17-.22.11-.01.21.06.23.16l1.64,8.59h0Z"/>
          <path class="cls-26" d="M312.66,181.66c.05-.26.02-.45-.07-.56-.09-.1-.2-.11-.31-.05,3.93-2.14,7.77-4.43,11.52-6.85.1-.06.19-.04.3.07.13.13.12.24-.03.34-3.61,2.62-7.42,4.97-11.41,7.05h0Z"/>
          <path class="cls-24" d="M293.03,189.81c.93,4.3,3.92,6.26,8.98,5.88,1.8-.14,3.53-.43,5.21-.86.26-.07.47.22.31.44-4.35,6.09.67,12.05,7.18,12.67,6.23.59,12.34-.05,18.31-1.93.34-.11.65-.16.93-.16.22,0,.31.27.13.39l-10.03,6.68c-.28.18-.38.43-.29.75.63,2.32,8.68,1.86,10.28,1.67,18.12-2.2,32.68-13.03,33.23-32.12,1.41,9.88-1.4,18.08-8.44,24.61-7.34,6.8-16.13,10.31-26.36,10.52-3.73.08-8.69-.59-11.44-3.34-1.28-1.28-.26-2.03.72-2.99.27-.26.07-.72-.32-.7-4.3.19-9.42.09-13.29-2.28-3.84-2.36-5.67-5.71-4.84-10.1.04-.21-.14-.4-.36-.37-7.74,1.01-13.4-3.61-12.46-11.13.61-4.83,4.32-9.01,8.66-11.3.19-.09.34-.13.47-.09.24.07.27.18.07.33-4.47,3.48-7.07,7.88-6.62,13.45h0Z"/>
          <path class="cls-1" d="M209.56,191.18c-11-3.53-22.23-4.64-33.67-3.31-2.94.34-6.95,1.29-9.1,2.72-12.17,8.05-18.84,19.42-23.67,32.26-.31.83-.24.86.21.09,3.34-5.65,8.11-10.65,14.3-13.66,1.13-.55,2.1-1.26,2.93-2.12,2.55-2.66,4.36-4.41,7.62-5.76,2.64-1.09,4.94-2.9,7.34-4.03,9.92-4.63,22.25-3.59,31.68.99.81.4.79.47-.08.19-3.7-1.15-7.42-1.94-11.18-2.37-11.43-1.31-22.96,3.87-29.63,12.74-7.66,10.21-9.53,26.09-7.75,38.31,1.04,12.22,5.26,25.17,13.08,34.83,1.34,1.66,2.62,3.25,3.85,4.76.79.97.87.91.26-.16-8.07-14.09-7.29-29.82,1.98-42.85,3.08-4.34,7.58-7.8,13.46-10.4.2-.09.38-.24.49-.43.77-1.2,1.51-2.4,2.22-3.58,2.68-4.49,6.27-8.03,10.76-10.63.95-.3,1.46-.27,1.55.1-1.71,1.69-3.73,3.19-5.03,5.05-12.69,17.95-8.45,43.77,2.51,61.19,2.36,3.75,5.45,7.94,9.27,12.59,1.12.95,1.94,1.95,2.45,3.02.19.39-.26.78-.63.55-19.89-12.24-28.71-35.47-26.04-57.91.03-.21-.24-.34-.4-.2-4.43,3.99-7.63,8.82-9.62,14.5-.57.71-.8,1.47-.69,2.28-3.45,13.18.64,25.54,8.94,36.02.31.39-.15.92-.6.68-3.82-2.03-6.98-4.76-9.49-8.18-.13-.18-.31-.3-.52-.38-1.12-.38-2.22-1.05-3.3-2-10.4-9.23-15.91-21.53-19.36-34.54-.08-.28-.44-.34-.62-.12-2.07,2.6-3.64,5.53-4.7,8.78-.12.17-.27.29-.46.37-.25.11-.54-.05-.59-.31-.69-4.09.43-7.7,3.36-10.81.47-.49.88-1.05,1.25-1.68.11-.19.15-.41.11-.63-1.85-9.68-1.27-19.2,1.73-28.55.06-.17-.17-.28-.29-.16-6.01,6.43-10.61,13.62-12.19,22.25-.54,2.93-.78,7.02-.72,12.26.13,12.38,2.58,23.9,8.31,34.78,2.18,5.06,5.35,9.53,9.54,13.41.14.14.14.35,0,.48l-.3.26c-.17.15-.36.2-.58.15-3.71-.8-6.78-2.74-9.18-5.84-3.93-5.09-6.77-10.57-8.5-16.44-10.38-35.28-5.13-83.88,36.07-98.58,7.03-2.52,14.4-3.66,22.13-3.42,4.3.14,8.59.14,12.88,0,.8-.03,1.02.18.65.64-.04.05-.1.09-.17.11-9.46,2.61-18.99,3.26-28.49,5.55-.07.02-.12.08-.11.16,0,.07.07.12.14.12,4.54,0,9.34-.18,13.61.42,3.66.51,19.46,3.66,21.11,6.8.24.45-.15.97-.67.89l-7.46-1.22h0Z"/>
          <path class="cls-10" d="M358.54,177.75c-.24,3.43-1.18,6.47-2.81,9.12l-3.64,2.33c-.1.06-.22.04-.29-.05-.07-.08-.06-.21.02-.28,2.61-2.34,4.19-4.32,4.73-5.93.59-1.72,1.25-3.46,1.98-5.2h0Z"/>
          <path class="cls-24" d="M312.28,181.05c.12-.07.22-.05.31.05.09.11.12.3.07.56-5.63,2.85-10.9,6.4-15.78,10.67-.09.08-.23.08-.32,0-.09-.08-.11-.21-.05-.31,3.18-4.81,10.56-8.59,15.76-10.97h0Z"/>
          <path class="cls-30" d="M260.99,188.06c1.16-1.93,5.4-4.69,7.65-4.88,1.18-.09,1.21.1.11.58-2.71,1.18-5.22,2.68-7.52,4.5-.14.11-.33-.05-.24-.2h0Z"/>
          <path class="cls-26" d="M374.63,183.96c5.9,11.22,6.22,22.75.93,34.58-2.68,6.02-6.24,11.34-10.67,15.96l3.26-4.45c.13-.17.16-.45.08-.64-.08-.18-.25-.22-.39-.07-.16.18-.32.2-.48.07-.11-.09-.17-.2-.17-.34,0-.44-.14-.84-.41-1.2-.19-.26-.34-.24-.45.06-.22.59-.54.9-.99.93,2.03-2.88,3.55-5.9,4.56-9.03-.08-.49.22-.88.89-1.18.2-.09.36-.23.45-.43,5.19-10.93,6.32-22.36,3.4-34.29h0Z"/>
          <path class="cls-26" d="M363.31,185.83l-.15,1.88c-.02.22.03.43.17.61.24.34.29.68.13,1.03-.24.52-.36.82-.38.91-.35,1.93-.18,2.36.53,1.29-1.52,3.93-3.95,7.24-7.27,9.94-.15.12-.38.11-.51-.03-.14-.14-.13-.36,0-.49,2.44-2.38,4.23-5.9,5.37-10.55l2.12-4.61h0Z"/>
          <path class="cls-3" d="M279.24,186.41c.14.17.1.42-.07.56l-9.32,6.99c-.18.14-.44.1-.58-.07l-.02-.02c-.14-.17-.1-.42.07-.56l9.32-6.99c.18-.14.44-.1.58.07l.02.02h0Z"/>
          <path class="cls-5" d="M209.56,191.18c-.77-.02-1.12.1-1.07.36.16.76.08,1.11-.24,1.03l-3.68-1.09c-.09-.03-.19.02-.22.1-.03.08,0,.18.08.22,3.53,1.8,7.47,3.39,10.54,5.39,4.23,2.77,7.63,6.23,11.74,9.1.2.14.29.39.2.61l-1.78,4.95c-.1.29-.46.41-.72.24-2.82-1.85-5.75-3.61-8.79-5.26-14.27-7.75-30.79-6.67-42.93,3.8-7.4,6.38-11.07,14.86-10.99,25.42,0,.04.03.07.07.07.04,0,.07-.03.08-.06.29-1.69.61-3.37.98-5.04,1.95-8.91,9.64-16.67,17.8-20.78,8.2-4.13,16.7-4.75,25.48-1.84,6.02,1.99,11.76,4.57,17.22,7.72.22.13.33.38.27.62l-.7,3.03c-.08.35-.49.53-.82.37l-8.13-3.99c-.3-.15-.51-.07-.61.24-.1.3-.03.52.21.64,1.89.91,3.52,2.08,4.89,3.53l-1.1.36c-.33-.4-1.09-.3-2.3.31-1.46-1.12-3.04-1.98-4.74-2.57-1.69-.59-3.05-.53-4.07.19-.09-.37-.61-.41-1.55-.1l.22-.41c.15-.28.06-.43-.26-.43l-6.22-.15,10.68-4.06c.49-.19.57-.82.15-1.12-2.65-1.85-5.56-3.18-8.75-3.97-.03,0-.03-.02-.03-.05.12-.33.1-.3-.03.1-.01.04.01.09.06.1,2.91.78,5.56,2.05,7.94,3.82.19.14.14.45-.1.51-3.81,1.06-7.39,2.39-10.74,3.99-2.2-.49-4.5-.55-6.89-.15l1.7-2.34c.19-.26-.13-.58-.4-.42l-3.09,1.8c-8.82.57-15.99,4.72-21.53,12.44-2.87,2.96-4.69,6.68-5.47,11.15-1.12.75-1.59,1.93-1.43,3.53.02.21-.15.38-.36.39h-.87c-.26,0-.4.13-.42.38l-.26,3.36c-1.78-12.21.09-28.1,7.75-38.31,6.66-8.86,18.2-14.05,29.63-12.74,3.76.43,7.48,1.22,11.18,2.37.87.28.9.21.08-.19-9.43-4.58-21.76-5.63-31.68-.99-2.4,1.13-4.7,2.94-7.34,4.03-3.26,1.34-5.07,3.09-7.62,5.76-.83.86-1.8,1.57-2.93,2.12-6.19,3.01-10.97,8.01-14.3,13.66-.45.76-.52.74-.21-.09,4.84-12.84,11.5-24.21,23.67-32.26,2.15-1.43,6.16-2.37,9.1-2.72,11.44-1.33,22.66-.22,33.67,3.31h0Z"/>
          <path class="cls-5" d="M117.93,189.52l-.57,1.7c-.15-1.1,0-2.18.46-3.24.09-.22.16-.21.19.02.08.49.06.99-.08,1.51h0Z"/>
          <path class="cls-31" d="M326.89,194.69l-.19-.66c2.51-1.53,4.96-3.17,7.34-4.9.09-.07.17-.08.26-.05.2.07.22.16.04.28l-7.46,5.32h0Z"/>
          <path class="cls-24" d="M273.6,218.34c-2.81.86-6.52,1.1-8.47-1.4-1.3-1.66-1.22-3.61.22-5.83.2-.31-.1-.7-.47-.61-3.31.86-7.76.6-10.26-1.72-3.91-3.61-2.26-10.01,1.09-13.33,2.44-2.42,6.64-5.74,10.21-6.18.33-.04.49.39.22.57-2.14,1.41-4.07,2.99-5.77,4.73-2.3,2.36-4.85,8.17-1.72,10.43,2.37,1.71,6.64,1.55,9.29.82,2.99-.82,5.95-3.23,8.73-5.05.31-.2.6-.26.88-.18.21.07.26.33.08.45-3.37,2.45-9.59,8.07-9.43,12.08,0,.22.11.41.29.54,3.38,2.47,6.89,1,10.47,0,.21-.06.36.18.22.34l-2.12,2.34s-.04.06-.05.09c-2.07,7.57,14.73,4.97,18.25,3.99.12-.03.24.02.29.13.06.11.02.24-.08.3-4.76,3.09-12.6,5.47-18.03,3.78-3.04-.95-4.47-2.88-3.48-5.96.07-.22-.14-.42-.36-.35h0Z"/>
          <path class="cls-30" d="M164.09,199.33c-.81.57-1.3.92-1.48,1.03-1.32.83-1.45.68-.38-.45,5.36-5.65,11.8-8.72,19.32-9.19,4.48-.28,8.24-.13,12.33,1.34.1.03.15.13.13.22-.03.09-.13.16-.22.14-10.89-1.75-20.78.55-29.69,6.9h0Z"/>
          <path class="cls-24" d="M326.7,194.04l.19.66-11.39,7.92c-.24.16-.13.53.17.54,7.94.43,14.96-1.52,22.46-3.8,1.07-.32,1.13-.21.17.35-6.35,3.7-16.51,6.26-24.13,4.06-.43-.12-.54-.66-.2-.95,3.96-3.22,8.21-6.15,12.74-8.78h0Z"/>
          <path class="cls-24" d="M293.2,204.99c.96-.31,1.97-.53,3.02-.68.34-.05.41.07.21.34-2.43,3.17-10.78,4.42-13.75,1.41-3.41-3.45.7-8.32,3.41-10.68.09-.08.24-.08.33,0,.09.08.1.22.03.32-2.15,2.93-5.17,7.98.96,9.07,2.76.49,4.69.57,5.78.22h0Z"/>
          <path class="cls-5" d="M452.69,204.57l-.9,3.05c-.23-1.09.07-2.11.9-3.05h0Z"/>
          <path class="cls-16" d="M336.56,210.47l11.09-3.62s.01,0,0,0c-1.44,2.21-11.04,4.54-13.72,4.98-.26.05-.43-.27-.24-.45,2.33-2.27,4.85-4.39,7.57-6.37.06-.05.13-.05.19,0,.07.04.08.14.02.2l-5.19,4.81c-.22.2,0,.55.29.46h0Z"/>
          <path class="cls-15" d="M198.4,217.77l-5.01,2.5c-.24.12-.29.07-.15-.15.73-1.09,3.02-2.28,4.35-3.04,3.35-1.59,6.94-2.93,10.74-3.99.24-.07.29-.37.1-.51-2.39-1.77-5.03-3.04-7.94-3.82-.04-.01-.07-.06-.06-.1.13-.4.15-.43.03-.1,0,.03,0,.05.03.05,3.18.8,6.09,2.12,8.75,3.97.42.3.34.93-.15,1.12l-10.68,4.06h0Z"/>
          <path class="cls-24" d="M303.68,219.02c.13-.17,0-.41-.22-.41-5.28.05-13.13-2.99-10.88-9.63.15-.44.79-.47.97-.03,2.78,6.55,9.16,7.39,15.71,6.8.29-.03.47.28.31.51l-.17.25c-.05.07-.13.12-.21.16-2.98,1.1-5.25,3.01-6.8,5.7-.19.32.01.73.39.8,5.21,1,10.45,1.2,15.73.59.14-.01.26.07.29.2.03.13-.04.26-.17.31-4.33,1.57-12.81,2.54-17.05.11-.77-.44-.97-1.44-.43-2.13l2.53-3.24h0Z"/>
          <path class="cls-24" d="M366.47,212.26c-.03.57-.29,1.11-.79,1.59-.61.59-.95.94-1.04,1.04-2.84,3.22-6.36,5.57-10.58,7.05-.26.09-.33,0-.24-.24.08-.22.17-.35.26-.4,4.66-2.26,8.65-5.33,11.98-9.2.3-.34.44-.3.42.16h0Z"/>
          <path class="cls-24" d="M251.5,216.69l-6.92,3.77c-.1.05-.23.03-.3-.06-.07-.09-.06-.22.03-.3,2.47-2.19,7.45-6.02,10.63-6.02.34,0,.4.13.17.38-1.47,1.61-2.52,3.61-3.17,5.99-2.15,7.92,8.75,7.34,13.15,5.84.14-.05.29.01.36.14.07.13.02.29-.1.36-4.2,2.59-15.46,6.58-17.07-1.2-.66-3.25,1.43-6.36,3.52-8.57.08-.08.08-.2,0-.29-.07-.09-.2-.11-.3-.05h0Z"/>
          <path class="cls-22" d="M190.69,216.93c-6.08,5.19-9.23,12.35-10.01,20.25-.02.2-.13.28-.33.22-.13-.04-.2-.12-.2-.24-.12-7.72,2.8-14.78,8.75-21.19l3.09-1.8c.28-.16.59.16.4.42l-1.7,2.34h0Z"/>
          <path class="cls-24" d="M321.19,219.24c-.33-.38.01-.96.52-.86,9.31,1.76,18.24.71,26.79-3.15.13-.06.29-.01.37.1.08.12.06.28-.06.37-3.08,2.59-6.37,4.68-9.89,6.28-.84.39-1.59,1.18-2.28,2.39-.1.2-.06.32.16.39,6.66,2.15,12.12,1.65,19.09.32.08-.01.16.03.19.11.02.08-.02.16-.1.2-5.85,2.37-10.94,3.52-17.27,2.16-1.34-.29-2.48-.76-3.42-1.41-.53-.36-.58-1.11-.09-1.54l2.85-2.48c.17-.16.15-.22-.09-.21-5.05.33-8.8.44-13.66-1.24-.84-.29-2.38-.57-3.11-1.43h0Z"/>
          <path class="cls-14" d="M188.9,215.97c-5.95,6.41-8.87,13.47-8.75,21.19,0,.12.07.2.2.24.2.06.31-.01.33-.22.79-7.9,3.93-15.07,10.01-20.25,2.4-.4,4.69-.34,6.89.15-1.33.76-3.61,1.95-4.35,3.04-.15.22-.1.27.15.15l5.01-2.5,6.22.15c.33,0,.42.15.26.43l-.22.41c-4.49,2.59-8.08,6.13-10.76,10.63-.71,1.18-1.45,2.38-2.22,3.58-.12.18-.29.33-.49.43-5.88,2.6-10.37,6.07-13.46,10.4-9.27,13.03-10.05,28.76-1.98,42.85.61,1.07.53,1.13-.26.16-1.23-1.51-2.51-3.09-3.85-4.76-7.82-9.65-12.05-22.61-13.08-34.83l.26-3.36c.02-.25.16-.38.42-.38h.87c.22-.01.38-.19.36-.4-.16-1.6.31-2.78,1.43-3.53-.79,6.07-.67,12.19.38,18.36.06.38.59.47.79.13.14-.25.2-.62.17-1.13-.54-10.2.09-18.59,4.74-27.96.06-.13.08-.27.03-.41-.19-.66-.4-.7-.64-.13,5.54-7.72,12.71-11.87,21.53-12.44h0Z"/>
          <path class="cls-5" d="M148.38,260.18c-1.72,9.07-1.55,18.24.52,27.53-5.73-10.88-8.19-22.4-8.31-34.78-.06-5.24.19-9.33.72-12.26,1.58-8.63,6.18-15.83,12.19-22.25.12-.13.34-.01.29.16-3.01,9.35-3.59,18.87-1.73,28.55.04.22,0,.44-.11.63-.37.63-.79,1.19-1.25,1.68-2.92,3.11-4.05,6.72-3.36,10.81.05.26.34.42.59.31.19-.08.34-.2.46-.37h0Z"/>
          <path class="cls-14" d="M215.03,221.24c-2.33,1.11-9.17,4.71-9.54,7.3-.04.26.26.44.49.28.85-.61,1.46-1.59,2.23-2.15,2.85-2.06,5.9-3.97,9.12-5.74l1.1-.36c1.19.52,2.29,1.3,3.29,2.33.1.11.15.26.13.41l-1.72,10.48c-.03.2-.12.37-.26.52-.47.48-.96.93-1.46,1.36-7.52,6.42-11.31,15.5-12.16,25.48-1.12,13.17,1.69,25.08,8.45,35.76-.7.05-1.27.3-1.73.76-3.82-4.64-6.91-8.84-9.27-12.59-10.95-17.42-15.19-43.24-2.51-61.19,1.31-1.86,3.32-3.36,5.03-5.05,1.02-.72,2.38-.78,4.07-.19,1.71.59,3.29,1.45,4.74,2.57h0Z"/>
          <path class="cls-24" d="M369.89,219.84c-1.01,3.13-2.53,6.14-4.56,9.03-7.26,10.67-20.84,19.52-34.69,18.34-.45-.04-.58-.61-.2-.82,3.02-1.73,7.31-2.47,10.7-3.49,9.98-3.03,18.14-8.63,24.22-16.81,1.51-2.03,3.02-4.11,4.53-6.24h0Z"/>
          <path class="cls-22" d="M217.33,220.93c-3.22,1.77-6.27,3.68-9.12,5.74-.77.55-1.38,1.53-2.23,2.15-.22.16-.53-.02-.49-.28.37-2.59,7.21-6.19,9.54-7.3,1.2-.61,1.97-.71,2.3-.31h0Z"/>
          <path class="cls-24" d="M288.56,230.8c-.22.29,0,.7.38.68,4.48-.25,8.82-1.12,13.03-2.61.15-.05.31.01.38.15.07.13.01.3-.12.38-3.43,1.96-11.05,4.24-15.22,2.99-.46-.13-.63-.68-.32-1.04l4.47-5.16c.14-.16.39-.19.56-.05.17.14.2.37.07.54l-3.22,4.13h0Z"/>
          <path class="cls-30" d="M167.37,228.42c.24-.57.45-.53.64.13.04.14.03.28-.03.41-4.64,9.38-5.27,17.76-4.74,27.96.02.51-.03.88-.17,1.13-.19.34-.72.26-.79-.13-1.05-6.17-1.18-12.29-.38-18.36.78-4.47,2.6-8.19,5.47-11.15h0Z"/>
          <path class="cls-30" d="M200.5,234.4c-3.31,10.57-3.68,21.23-1.11,31.95.1.42.08.82-.08,1.2-.12.3-.23.3-.34,0-4.3-11.63-4.65-27.71,3.08-38.31.07-.1.21-.13.32-.07.11.06.15.2.1.3-.79,1.63-1.45,3.27-1.97,4.93h0Z"/>
          <path class="cls-15" d="M219.23,229.88l-2.19.64c-.22.06-.4.18-.56.33-4.96,4.74-8.39,10.5-10.29,17.27-2.58,9.21-3.4,18.46-2.47,27.76.05.48-.13.73-.17,1.22,0,0,0,.02-.02.02,0,0-.02-.01-.02-.02-1.97-11.38-1.05-25.79,4.1-36.08,1.65-3.31,7.19-11.44,11.5-11.76.17-.01.31.1.34.26.03.16-.06.31-.22.36h0Z"/>
          <path class="cls-24" d="M309.45,241.79c-3.82,2.35-12.86,5.51-16.42,2.08-.2-.19-.24-.48-.11-.71l1.18-2.13c.1-.18-.1-.37-.28-.28-5.51,2.78-10.72,4.69-16.86,3.78-1.17-.17-2.28-.91-3.54-1.22-.23-.06-.48-.03-.68.09-5.01,2.92-12.42,5.38-16.31-.7-1.13-2.77-.8-5.73.98-8.87.1-.17.31-.23.49-.15.17.08.25.28.17.46-.29.64-.33,1.7-.12,3.17.37,2.57,1.87,4.09,4.51,4.55,7.47,1.3,14.88-6.72,18.66-12.25.09-.13.26-.18.41-.11.15.07.22.23.17.38-1.17,3.59-2.89,6.9-5.16,9.94-.27.36,0,.88.46.88,9.16.13,16.22-3.9,23.82-8.26.28-.16.63.07.57.38-.39,2.23-4.4,6.13-6.08,8.12-.37.43-.01,1.09.56,1.03,7.85-.78,14.72-3.67,20.6-8.65.22-.19.56,0,.52.28-.4,2.82-5.25,6.91-7.57,8.19h0Z"/>
          <g>
            <path class="cls-5" d="M130.82,229.36c-1.65,3.33-2.58,6.77-2.79,10.33-.27,4.55-.33,9.1-.17,13.66-3.89-9.49-6.32-19.11-7.3-28.86-.15-1.49-.84-2.12-2.04-1.9-.19-9.06.78-18.1,2.91-27.12.04-.14.23-.17.3-.04l.22.38c.1.19.16.39.16.6-.04,3.68.52,7.31,1.68,10.9l-1.02,20.63c0,.23.08.28.27.14.12-.09.19-.22.22-.39,2.99-20.14,10.38-37.87,27.03-51.05.07-.05.17-.05.24,0,.07.06.08.16.02.23-1.36,1.72-2.56,3.53-3.61,5.46-1.39,2.53-3.4,3.45-4.94,5.61-3.67,5.13-6.41,10.88-8.22,17.23-2.37,8.33-3.36,16.38-2.95,24.16h0Z"/>
            <path class="cls-1" d="M127.86,253.35c.82,2.76,1.99,5.41,3.5,7.97l2.26,6.66c.17.48-.3.94-.8.8-3.89-1.13-8.08-10.49-9.29-13.95-2.9-8.33-4.61-17.27-5.12-26.8-.13-2.3-.09-4.12.1-5.44,1.2-.22,1.89.41,2.04,1.9.98,9.76,3.41,19.38,7.3,28.86h0Z"/>
            <path class="cls-14" d="M130.82,229.36c.13,2.22.54,3.78,1.26,4.65-1.23,9.01-1.48,18.12-.72,27.31-1.51-2.56-2.68-5.22-3.5-7.97-.15-4.56-.1-9.11.17-13.66.21-3.56,1.14-7,2.79-10.33h0Z"/>
          </g>
          <path class="cls-24" d="M324.98,235.73c-.33.24-.16.76.26.76,7.92.14,15.29-1.7,22.14-5.52,1.71-.95,1.85-.74.4.64-.12.11-.56.36-1.3.74-.42.22-.85.46-1.3.73-6.59,4.01-13.8,5.38-21.61,4.13-.47-.07-.79-.24-1-.49-.19-.24-.14-.59.12-.76l8.07-5.53c.18-.12.42-.08.55.09.13.17.1.41-.08.54l-6.25,4.66h0Z"/>
          <path class="cls-15" d="M164.07,249.34c.58-3.38,1.39-6.72,2.46-9.99.56-1.75,1.41-3.36,2.52-4.85.05-.07.15-.09.22-.05.08.04.11.14.08.21-3.62,8.44-5.01,17.3-4.18,26.56.17,1.97.27,3.63.29,4.99.02,1.82-.11,1.83-.38.03-.38-2.57-.77-5.41-1.17-8.48-.36-2.82-.31-5.63.17-8.42h0Z"/>
          <path class="cls-16" d="M141.89,246.3c.63-4.36,2.46-7.98,5.46-10.84.33-.32.67-.32,1.02-.03.17.16.19.32.04.49-3.93,4.6-5.65,9.61-6.65,15.46-.01.09-.1.15-.19.15-.09,0-.17-.08-.17-.17-.14-1.76.29-3.66.5-5.05h0Z"/>
          <path class="cls-15" d="M199.69,253.81c.72-6.3,2.83-12.73,6.93-17.57.23-.28.26-.26.07.04-3.29,5.41-5.22,11.79-6.71,17.92-.02.11-.06.12-.12.01l-.15-.28s-.03-.08-.02-.12h0Z"/>
          <path class="cls-24" d="M311.57,248.31c-2.76-.66-1.64-3.24-.96-4.96,7.76.93,15.16-.71,22.19-3.86.38-.17.77.25.54.6-3.91,6.01-14.67,8.68-21.77,8.22h0Z"/>
          <path class="cls-26" d="M309.45,241.79c-.84,1.1-.46,1.62,1.16,1.56-.68,1.72-1.8,4.3.96,4.96-.88-.03-1.66-.37-2.37-1.03-.17-.16-.38-.22-.62-.19-2.55.39-5.09.74-7.62,1.09-3.73.51-8.05-.93-10.99-.47-7.92,1.23-12.97,2.12-19.93,1.17-.22-.03-.4-.15-.51-.34-.54-.97-1.2-1.56-2.42-1.56-2.45,0-4.85.36-7.18,1.07-.24.07-.47.05-.69-.08-1-.59-2.08-.72-3.22-.39-.78.22-1.3-.77-.65-1.25,1.18-.88,1.54-2.08,1.07-3.61,3.89,6.09,11.3,3.62,16.31.7.2-.12.45-.16.68-.09,1.25.31,2.37,1.05,3.54,1.22,6.14.91,11.35-1,16.86-3.78.18-.09.38.1.28.28l-1.18,2.13c-.13.23-.08.52.11.71,3.56,3.43,12.6.27,16.42-2.08h0Z"/>
          <path class="cls-16" d="M301.73,269.05c-2.45.84-4.69,2.26-6.73,4.25-.3.3-.42.63-.37.99l-.14-.74c-.05-.25-.2-.38-.46-.42-.44-.05-.92.08-1.44.37.08-.64-.15-1.03-.7-1.19-3.43-.94-6.4-1.81-8.91-2.63-2.69-.88-6.41.16-9.12.68-1.95-1.85-3.63-1.37-5.04,1.43-.34-.32-.84-.67-1.5-1.03-.43-.24-1-.41-1.71-.49-2.4-.3-4.37-1.38-5.89-3.24-.2-.24-.55-.26-.77-.05l-1.2,1.12c-.22.21-.24.43-.06.68l.78,1.01c-.95-.21-1.27-.93-.94-2.15.07-.26-.03-.38-.31-.33-1.9.33-3.04,2.49-2.13,4.16.58,1.06,2.06,1.88,3.14,2.72.18.14.25.38.17.59-1.15,2.86.77,4.15,3.15,5.36,1.51.76,3.22,1.17,5.12,1.2.61,0,1.01.6.79,1.15-.73,1.78-.34,3.38,1.17,4.81.73.69,1.62,1.47,2.64,2.34-1.52-.93-2.94-1.14-4.27-.61l.59-.64c.28-.3.21-.45-.21-.43-7.34.32-13.2-2.31-17.56-7.88-.46-.59-.17-1.43.55-1.65.78-.23,1.5-.17,2.17.19.26.14.58.07.75-.16.17-.22.15-.54-.06-.74-1.25-1.22-2.44-2.57-3.57-4.06-.52-.68-.78-1.42-.06-2.04.36-.3.17-.88-.31-.93-4.24-.42-10.28-2.22-11.98-6.51-.45-1.13-.25-1.94.59-2.44.2-.12.27-.29.21-.51-1.17-4.34,2.01-8.4,4.78-11.49.2-.22.41-.24.65-.05.31.24.5.55.59.94.05.19.14.37.26.53,6.94,8.28,16.22,12.78,27.85,13.49,8.47.51,14.41.95,17.83,1.31,3.98.43,7.87,1.45,11.68,3.08h0Z"/>
          <path class="cls-5" d="M178.72,257.64c.03.86-.2,1.62-.69,2.28-.11-.81.12-1.57.69-2.28h0Z"/>
          <path class="cls-24" d="M250.79,262.06c1.38.7,2.78,1.22,4.2,1.59.5.13.46.84-.06.91-5.06.68-8.84-1.04-11.37-5.18-.17-.28.08-.63.41-.57,1.5.28,2.9.81,4.18,1.61,1.73,1.09,2.61,1.63,2.63,1.64h0Z"/>
          <path class="cls-16" d="M359.12,281.74l-11.08.02c-.22,0-.43.06-.63.18-4.5,2.67-11.04,4.8-16.39,4.3-.43-.04-.56-.59-.2-.81l6.78-4.05c.25-.15.35-.45.23-.71-.24-.55-.67-.78-1.29-.7-.63.08-1.09-.57-.78-1.12l3.11-5.36c.33-.58-.06-1.3-.74-1.36-4.28-.39-8.14.2-12.21-1.44-.63-.26-.69-1.11-.1-1.44l1.73-.98c.91-.51.91-1.01-.02-1.51-3.52-1.87-6.95-2.84-10.29-2.92l13.91-2.49c.26-.05.49.01.7.17l3.36,2.51c.63.47.46,1.44-.3,1.68l-5.61,1.73c-.22.07-.24.37-.02.46,4.44,1.87,8.52,1.35,12.25-1.55.39-.3.97-.05,1,.43.07,1.01.51,1.7,1.32,2.38,1.96,1.63,4.08,2.99,6.39,4.06,2.12.99,3.69,1.83,4.7,2.52,1.57,1.07,3.11,2.18,4.65,3.3.16.12.33.2.52.24.4.1.75.3,1.02.58.19.2.19.38,0,.57-.74.71-1.41,1.14-2.02,1.31h0Z"/>
          <path class="cls-31" d="M317.26,263.84c3.34.07,6.78,1.05,10.29,2.92.93.49.93.99.02,1.51l-1.73.98c-.59.33-.54,1.18.1,1.44,4.07,1.63,7.92,1.05,12.21,1.44.68.06,1.07.78.74,1.36l-3.11,5.36c-.31.55.15,1.2.78,1.12.62-.08,1.04.16,1.29.7.12.26.02.56-.23.71l-6.78,4.05c-.37.22-.24.77.2.81,5.35.51,11.89-1.63,16.39-4.3.2-.12.4-.18.63-.18l11.08-.02c-13.94,10.26-27.94,20.26-43.05,28.56-9.05,4.98-18.51,9.21-29.25,5.42-.98-.34-2.28-1.45-3.91-3.31-.15-.17-.11-.26.12-.26,3.22-.14,5.97.05,8.24.58.54.13.8.47.79,1.02,0,.18-.09.26-.27.24l-.63-.06c-.22-.02-.41.12-.45.33-.04.2.08.41.29.47,4.35,1.24,8.6.93,12.74-.91,7.58-3.38,12.53-5.97,17.46-9.89.14-.11.17-.3.07-.45-.09-.15-.29-.2-.45-.12-6.14,2.93-12.76,5.01-19.63,4.41-.93-.08-1.43-1.09-.93-1.84,1-1.51,2.29-2.74,3.86-3.68.24-.14.1-.51-.17-.47-2.01.28-3.88,1.44-5.53,1.72-4.07.7-10.01.8-13.22-2.18-.7-.65-.66-1.74.08-2.35.77-.63,1.33-1.41,1.67-2.35.13-.37-.23-.73-.61-.61-2.65.82-5,2.15-7.05,3.97-.17.15-.4.22-.63.18-2.12-.32-5.35-3.34-7.05-4.7-.18-.15-.13-.44.1-.51l1.34-.42c.2-.06.29-.2.24-.4-.04-.21-.18-.33-.42-.36-2.76-.32-5.12-1.3-7.06-2.96-.18-.16-.25-.39-.19-.61.15-.5.6-.88,1.35-1.14,1.33-.52,2.75-.32,4.27.61,4.19,1.57,8.63,2.15,13.32,1.72.09,0,.17-.08.17-.18,0-.09-.06-.17-.15-.19l-4.07-.87c-.16-.03-.18-.26-.02-.31l4.77-1.75c.41-.15.3-.75-.15-.74-5.02.05-9,.7-13.28-2.38-2.6-1.86.56-3.47,1.5-4.7.23-.3-.01-.72-.4-.68-4.49.53-8.27-.76-11.35-3.87-.61-.61-.52-1.11.27-1.48l3.16-1.49c.41-.2.31-.78-.14-.84-2.26-.28-4.41-.98-6.42-2.1l-.78-1.01c-.19-.24-.17-.47.06-.68l1.2-1.12c.22-.21.58-.19.77.05,1.52,1.86,3.49,2.94,5.89,3.24.71.09,1.28.26,1.71.49.66.36,1.16.7,1.5,1.03,1.79,1.49,3.17,2.41,4.12,2.75.75.28,2.32.59,4.72.96.35.05.4.21.17.47-.57.61-1.39,1.11-1.78,1.74-1.2,1.97-.93,3.74.81,5.31,3.02,2.72,9.21,4.12,13.01,1.3.55-.41.28-1.26-.41-1.29-1.84-.09-12.3-1.95-10.21-5.43,1.8-3,5.42-2.46,8.33-3.55.44-.16.31-.8-.15-.79-4.94.03-9.5.2-13.57-2.91,2.71-.52,6.43-1.55,9.12-.68,2.51.82,5.49,1.69,8.91,2.63.55.16.79.55.7,1.19l-1.99,2.26c-.58.66-.13,1.67.76,1.71,2.44.12,9.87.03,11.68-1.5.26-.22.1-.63-.24-.63-2.44-.01-4.92-.2-7.4-.55-.24-.03-.49-.2-.76-.51-.06-.36.07-.69.37-.99,2.03-1.99,4.28-3.41,6.73-4.25l9.15,2.6c.4.11.55.57.3.89l-2.1,2.65c-.13.16-.17.35-.14.55.81,4.19,15.45,4.03,18.58,3.61.17-.02.25-.23.12-.36l-.19-.2c-.17-.18-.4-.28-.65-.3-4.55-.39-8.67-1.86-12.34-4.42-.57-.4-.47-1.26.18-1.51l6.48-2.59c.21-.08.22-.37.02-.47l-9.41-4.8c-.22-.12-.15-.44.1-.46l5.43-.41h0Z"/>
          <path class="cls-31" d="M348,266.52c-.3.06-.43.2-.4.42-.42-.07-.72-.22-.88-.44-.16-.21-.1-.31.17-.3.4.01.77.12,1.11.32h0Z"/>
          <path class="cls-24" d="M258.46,269.8c2.01,1.12,4.16,1.82,6.42,2.1.45.05.55.64.14.84l-3.16,1.49c-.79.37-.88.86-.27,1.48,3.08,3.11,6.86,4.4,11.35,3.87.38-.04.63.38.4.68-.94,1.23-4.09,2.84-1.5,4.7,4.28,3.08,8.26,2.43,13.28,2.38.45,0,.56.59.15.74l-4.77,1.75c-.16.05-.14.28.02.31l4.07.87c.09.02.15.1.15.19,0,.09-.08.17-.17.18-4.69.43-9.13-.15-13.32-1.72-1.02-.87-1.91-1.66-2.64-2.34-1.51-1.43-1.9-3.03-1.17-4.81.22-.55-.18-1.14-.79-1.15-1.9-.03-3.61-.44-5.12-1.2-2.38-1.21-4.3-2.51-3.15-5.36.08-.22.01-.45-.17-.59-1.08-.84-2.56-1.66-3.14-2.72-.9-1.68.23-3.83,2.13-4.16.28-.05.38.07.31.33-.33,1.23-.01,1.95.94,2.15h0Z"/>
          <path class="cls-24" d="M273.86,270.36c4.07,3.11,8.63,2.94,13.57,2.91.47,0,.59.63.15.79-2.92,1.09-6.54.55-8.33,3.55-2.08,3.48,8.38,5.34,10.21,5.43.69.03.96.89.41,1.29-3.8,2.82-9.99,1.42-13.01-1.3-1.74-1.57-2.01-3.34-.81-5.31.39-.63,1.2-1.14,1.78-1.74.24-.26.18-.41-.17-.47-2.4-.36-3.98-.68-4.72-.96-.95-.34-2.33-1.26-4.12-2.75,1.41-2.8,3.09-3.28,5.04-1.43h0Z"/>
          <path class="cls-24" d="M294.64,274.29c.27.3.52.47.76.51,2.49.35,4.96.53,7.4.55.34,0,.5.41.24.63-1.8,1.53-9.23,1.61-11.68,1.5-.88-.04-1.34-1.05-.76-1.71l1.99-2.26c.52-.29,1-.42,1.44-.37.26.03.41.17.46.42l.14.74h0Z"/>
          <path class="cls-24" d="M333.96,294.21c-.49-.07-1.11.13-1.86.61-1.35.87-3.14.3-4.39.4-3.52.25-6.91,0-10.17-.77.06-1.19-.58-2.27-1.94-3.24-.77-.55-1.79-.84-3.06-.89-4.76-.18-9.64.21-12.78-3.86-1.42-1.84,1.13-4.22,2.75-5.84.17-.17.28-.36.33-.59l.12-.53c.08-.35.49-.51.79-.3,2.58,1.82,5.22,3.38,7.88,4.68,4.65,2.26,10.54-.36,15.56-.95.17-.02.33.09.37.26.04.17-.06.34-.23.38-3,.9-5.77,2.24-8.33,4.03-.38.27-.39.82,0,1.1,6.5,4.65,15.89,3.24,22.77.46.12-.05.26,0,.32.1.06.11.04.25-.06.32-2.58,1.93-5.26,3.47-8.07,4.62h0Z"/>
          <path class="cls-24" d="M289.37,297.21c-2.54-1.13-3.22-3.08-2.01-5.84,1.48-3.4,4.3-5.08,8.47-5.04.27,0,.31.08.09.25-1.88,1.46-4.73,2.8-5.25,5.3-.04.2,0,.41.09.59,2,3.69,12.58,2.73,15.58,1.88,2.9-.82,3.09-.42.57,1.2-3.5,2.25-8.16,3.16-13.96,2.72-1.36-.1-2.26-.48-3.58-1.07h0Z"/>
          <path class="cls-16" d="M317.54,294.45c3.26.76,6.65,1.02,10.17.77,1.25-.09,3.04.47,4.39-.4.75-.47,1.36-.68,1.86-.61-6.4,3.63-13.38,5.38-20.93,5.24-.44,0-.63-.53-.31-.82l4.82-4.19h0Z"/>
          <path class="cls-31" d="M292.29,308.58c-2.55.47-12.09,1.08-12.61-2.63-.18-1.33-.7-2.53-1.56-3.61-.14-.18-.12-.43.06-.57.66-.57,1.55-.3,2.11.34,1.72,1.93,3.61,3.52,6.29,4.02,3.24.6,6.46.44,9.67-.47.24-.07.34.02.31.26-.45,3.3,1.02,5.26,4.39,5.86.29.05.29.45.01.51-3.64.82-7.87,1.12-10.89-1.14-.3-.22-.26-.66.06-.84l2.33-1.28c.1-.06.15-.18.11-.29-.04-.11-.17-.18-.29-.16h0Z"/>
          <path class="cls-16" d="M319.34,316.95c7.65-.27,16.2-1.95,23.24-5.09.47-.21.95.3.68.74-1.62,2.64-3.75,4.94-6.39,6.9-5.03,3.76-14.76,5.2-18.13-1.58-.22-.44.1-.96.61-.97h0Z"/>
          <path class="cls-13" d="M287.9,321.83c2.69.58,4.69.89,8.38.73.26-.01.47.18.49.43l.22,3.13c.05.67-.27,1.04-.96,1.13-3.39.43-8.93-.57-8.46-5.19.02-.2.13-.28.33-.23h0Z"/>
          <path class="cls-13" d="M335.2,326.7c.13-.04.27.05.29.18l.35,3.26c.03.25-.15.49-.4.53-2.96.53-5.61-.1-7.92-1.9-.28-.22-.13-.65.22-.67,2.55-.16,5.03-.63,7.46-1.41h0Z"/>
          <path class="cls-13" d="M296.6,328.96c.4-.11.61.03.63.43l.27,5.03c.02.33-.24.62-.58.65-2.28.21-4.4-.3-6.38-1.55-1.91-1.2-2.67-3.1-2.28-5.7.03-.2.13-.24.31-.13,2.45,1.64,5.13,2.06,8.02,1.26h0Z"/>
          <path class="cls-13" d="M334.13,332.95c.35,1.53.57,3.05.67,4.54.04.55.66.95,1.88,1.2-5.43.5-8.27-1.75-8.52-6.76,0-.22.09-.28.3-.19,1.85.83,3.74,1.23,5.67,1.2h0Z"/>
          <path class="cls-18" d="M336.68,338.69c-1.22-.26-1.85-.66-1.88-1.2-.1-1.49-.32-3.01-.67-4.54l1.68-.34c.23-.05.37.04.42.26.48,1.99.63,3.93.44,5.82h0Z"/>
          <path class="cls-13" d="M289.48,335.09c2.61,1.89,4.64,2.58,7.9,1.93.24-.05.38.05.4.29l.9,7.94c.06.57-.4,1.06-.98,1.06-2.85-.01-5.34-.95-7.45-2.81-.19-.17-.3-.38-.33-.63l-.88-7.54c-.05-.41.1-.49.44-.24h0Z"/>
          <path class="cls-13" d="M335.64,340.69c-.11.87.07,1.56.54,2.06.15.16.22.35.2.57-.08.82.15,1.52.69,2.09.15.16.24.35.27.57.08.66.42,1.05,1.04,1.21-6.32,1.16-8-2.89-8.65-7.9-.03-.3.07-.36.31-.18,1.68,1.2,3.55,1.72,5.61,1.58h0Z"/>
          <path class="cls-18" d="M338.38,347.19c-.62-.16-.97-.55-1.04-1.21-.03-.22-.12-.41-.27-.57-.54-.57-.77-1.28-.69-2.09.02-.22-.04-.41-.2-.57-.47-.5-.65-1.19-.54-2.06l1.52-.73c.24-.12.39-.05.45.2.51,2.16,1,4.3,1.48,6.43.07.32-.17.51-.72.6h0Z"/>
          <path class="cls-13" d="M297.77,348.34c-.31,3.45.45,6.57,2.31,9.37-3.13.38-5.74-.23-7.85-1.82-.86-.65-1.34-1.38-1.43-2.19-.24-2.37-.4-4.74-.47-7.12,0-.28.1-.34.33-.17,2.27,1.65,4.64,2.3,7.1,1.93h0Z"/>
          <path class="cls-18" d="M300.08,357.71c-1.86-2.8-2.63-5.93-2.31-9.37.7-.36,1.09-.36,1.19-.02.87,3.09,1.25,6.22,1.12,9.39h0Z"/>
          <path class="cls-13" d="M338.35,349.47c.75,3.4,1.98,6.74,3.73,10.02l-3.82,1.18c-.26.08-.32.42-.1.58.84.6,1.96.66,3.37.19l2.19,1c.24.11.35.29.32.55l-.14,1.09c-1.43.6-2.91.84-4.45.73-.41-.03-.61.47-.29.72.97.73,2.1,1.18,3.41,1.33.2.59.99.72,2.39.41.23-.05.46.07.54.28.16.43.11.82-.15,1.2-.14.2-.18.43-.13.67.06.25.2.43.42.53-.63.57-.79,1.36-.45,2.37.16.47.81.55,1.09.13.86-1.33,2.05-2.35,3.54-3.07.89-.43,1.72-.11,2.35.49.17.17.19.43.04.61l-3.28,4.14c-.21.26-.16.47.14.62,3,1.5,3.89-5.85,7.19-3.01.19.16.19.32,0,.49-1.3,1.24-2.16,2.71-2.57,4.43-.09.39.13.76.49.84.12.03.27-.09.46-.36,1.02-1.49,2.23-2.82,3.62-4,.2-.17.42-.23.68-.17l2.18.5c.56.13.58.3.06.53-1.45.64-2.61,1.6-3.48,2.89-.25.37.15.84.57.67l2.3-.93c4.01.28,7.82.93,11.43,1.96.22.06.41.18.56.35,1.16,1.32,2.16,1.57,2.97.74-.23,1.76-.81,2.75-1.74,2.99-4.62,1.17-9.09.35-13.42-2.45-.19-.13-.41-.17-.64-.12-5.2,1.03-10.31.68-15.33-1.03-4.45-1.52-8.5-.93-12.16,1.76-.21.15-.46.24-.72.25-5.54.21-10.74-.96-15.62-3.51-.24-.13-.25-.27-.02-.43,1-.68,2.05-1.35,3.36-1.26,1.25.09,2.5.24,3.75.43.16.02.31.12.39.25l2.06,3.22c.35.55,1.23.37,1.32-.28.16-1.17-.27-2.07-1.28-2.7-.24-.15-.18-.51.1-.57l6.67-1.58c.2-.05.33.02.41.19l.81,1.76c.07.14.24.22.39.17.16-.05.25-.2.22-.36-.4-2.04.25-3.69,1.93-4.94.22-.16.39-.13.54.09l3.21,4.84c.15.22.48.2.61-.02.16-.28.16-.57-.01-.9-.88-1.68-2.52-4.57-2.39-6.76.16-2.76.43-4.21-.97-7.24-1.91-4.1-3.57-8.42-4.97-12.97-.07-.23.17-.43.39-.34,1.8.76,3.77,1.02,5.88.77h0Z"/>
          <path class="cls-18" d="M342.08,359.49c-1.75-3.28-2.99-6.62-3.73-10.02l1.13-.45c.26-.1.45-.03.54.24l3.4,9.2c.08.22.01.39-.21.49l-1.13.54h0Z"/>
          <path class="cls-13" d="M299.53,359.62c.05,2.13.49,3.97,1.34,5.55l-3.93,1.41c-.61.22-.47,1.1.18,1.13l1.94.07-.13.3c-.12.26-.03.4.26.41,2.3.09,3.36,1.19,3.17,3.3l-3.7,2.22c-.29.18-.15.62.2.59,2.6-.16,4.87-1.11,6.78-2.84.15-.14.4-.1.51.08l1.21,2.11c.13.24.1.53-.07.74-1.19,1.41-2.09,2.98-2.69,4.7-.17.5.49.87.85.47l3.43-3.83c.15-.16.29-.16.43,0l1.83,1.95c.18.2.17.39-.02.57-1.71,1.63-3.13,3.46-4.27,5.5-.13.24.17.49.39.32l5.84-4.34c.13-.09.29-.12.44-.07l3.57,1.05c.2.06.24.31.07.43l-3.56,2.45c-.28.19-.1.61.23.57,3.18-.41,5.74-2.38,9.18-1.51.3.07.31.18.04.33-1.5.8-2.76,1.86-3.81,3.18-.34.43-.25.53.26.34l2.47-.96c.61.24,1.32.26,2.15.05.88-.22,1.57-.32,2.05-.3,3.82.17,7.39.86,10.72,2.09.46,3.32-.6,3.37-3.56,3.49-5.22.2-10.15-.88-14.79-3.22-.22-.11-.47-.14-.71-.07-5.75,1.5-11.1.7-16.05-2.41-.21-.14-.45-.2-.7-.2-4.16.09-8.27-.34-12.32-1.3-.22-.05-.45-.03-.65.03-5.35,1.76-10.81,2.34-16.38,1.71-1.63-.18-2.81-.17-2.94-1.9-.08-1.03.04-1.84.36-2.43l8.93.61c.45.74,1,1.18,1.66,1.32.51.11.63-.05.36-.49l-1.43-2.36c-.11-.18-.03-.41.17-.48l4.48-1.55c.15-.05.31-.03.43.06l2.73,1.91c.22.15.48-.09.35-.31l-1.75-2.87c-.31-.51.16-1.13.75-.99l3.32.77c.31.07.52-.3.3-.51l-1.7-1.63c-.71-.68-.15-1.85.84-1.78,1.39.1,2.76.42,4.1.97.36.15.69-.26.46-.57-.79-1.05-1.85-1.72-3.17-2.04-.34-.08-.57-.39-.54-.74.03-.34.32-.61.68-.63l1.8-.09c.36-.02.45-.49.13-.64l-1.39-.62c-.17-.07-.24-.2-.21-.38.61-3.32.83-6.66.65-10.03-.01-.3.11-.37.37-.2,2.12,1.36,5.49,3.05,8.04,1.55h0Z"/>
          <path class="cls-18" d="M300.88,365.17c-.85-1.57-1.3-3.42-1.34-5.55l1.41-.35c.27-.07.45.03.51.3.24.99.51,2.3.78,3.94.11.67-.34,1.22-1.36,1.66h0Z"/>
          <path class="cls-18" d="M343.91,364.08l.14-1.09c.03-.26-.08-.45-.32-.55l-2.19-1,2.55-.81c.24-.07.49.05.58.28l.73,2.11c.07.19-.02.39-.21.48l-1.27.57h0Z"/>
          <path class="cls-18" d="M345.66,369.96c-.22-.1-.35-.28-.42-.53-.06-.24-.01-.47.13-.67.26-.38.31-.78.15-1.2-.08-.22-.31-.33-.54-.28-1.4.31-2.19.18-2.39-.41,1.46-.36,5.26-2.21,5.57.15.03.2-.03.37-.17.52l-2.33,2.43h0Z"/>
          <path class="cls-17" d="M302.37,371.78c.19-2.11-.86-3.21-3.17-3.3-.29,0-.38-.14-.26-.41l.13-.3,4.06-1.7c.27-.11.45-.03.54.24l1.06,3.24c.08.26.03.49-.15.69-.63.7-1.37,1.21-2.2,1.54h0Z"/>
          <path class="cls-13" d="M377.27,370.69c-.07,1.14.32,2.18,1.16,3.11.19.2.22.43.11.68l-.89,2.02c-3.38-1.18-7.43-1.67-10.35-2.53-2.63-.78-5.21-1.65-7.74-2.63-.05-.02-.08-.07-.07-.12.01-.05.06-.08.11-.08,5.94.22,11.82.07,17.66-.45h0Z"/>
          <path class="cls-21" d="M377.27,370.69c4.14.31,3.13,6.05.38,5.82l.89-2.02c.11-.25.08-.48-.11-.68-.84-.94-1.23-1.97-1.16-3.11h0Z"/>
          <path class="cls-3" d="M382.59,373.75c1.77-.33,3.79.45,4.85,1.87.09.13.06.19-.1.18l-5.47-.26c-.22,0-.29-.12-.21-.31l.41-1.06c.09-.24.26-.38.52-.43h0Z"/>
          <path class="cls-18" d="M375.58,380.19c-.81.83-1.81.58-2.97-.74-.15-.17-.34-.29-.56-.35-3.61-1.03-7.42-1.68-11.43-1.96,3.15-2.41,5.86-1.3,8.92.62.19.12.39.14.6.05,2.99-1.22,4.8-.43,5.45,2.37h0Z"/>
          <path class="cls-28" d="M278.1,381.98l-8.93-.61c3.22-2.47,6.2-2.26,8.93.61h0Z"/>
          <path class="cls-30" d="M383.22,381.06c.22.09.15.41-.08.42l-5.51.26c-.24.01-.31-.09-.21-.3,1.32-2.86,3.79-1.32,5.81-.39h0Z"/>
          <path class="cls-30" d="M266.49,383.78c.02.11-.08.21-.19.2l-6.79-.89c-.15-.02-.18-.23-.03-.28,2.04-.76,4.16-1.18,6.34-1.27.19,0,.37.13.4.32l.29,1.93h0Z"/>
          <path class="cls-18" d="M336.92,387.66c-3.33-1.22-6.9-1.92-10.72-2.09-.48-.02-1.17.08-2.05.3-.83.21-1.55.19-2.15-.05,2.18-1.02,3.87-1.78,6.38-1.56,3.07.26,5.16.51,6.27.74,1.87.39,2.63,1.28,2.27,2.66h0Z"/>
          <path class="cls-16" d="M261.11,385.52c1.22-.28,2.33-.22,3.33.18l-1.59.12-1.74-.3h0Z"/>
          <path class="cls-5" d="M262.85,385.83l1.59-.12.81.36c-.84.11-1.64.03-2.4-.24h0Z"/>
          <path class="cls-30" d="M339.41,389.11l.11-1.38c.03-.34.21-.47.55-.36l4.98,1.59c.24.08.21.43-.05.45l-5.49.55c-.3.03-.39-.09-.28-.36l.15-.37s.03-.08.03-.13h0Z"/>
        </g>
        <path d="M414.7,57.29s2.28-2.83,6.94-1.95,6.03,2.48,7.85,7.35c1.83,4.87,6.62-.18,6.62-.18,0,0-5.2,6.91-10.73,6.29-3.04-.34-4.66,1.42-5.75.97s5.29-.89,7.03-3.19,1.19-5.85-.18-7.44c-1.37-1.59-5.93-3.99-11.78-1.86Z"/>
        <path class="cls-10" d="M420.67,60.5c-2.11.89-2.47,2.12-1.09,3.69.12.13.29.22.47.24,2.3.2,5.21-1.62,3.04-3.81l-.29-.82c-.05-.16,0-.22.16-.18.45.11.78.29.99.55,1.2,1.49,1.35,2.83.45,4.01-2.83,3.68-9.14-.61-5.62-3.83.85-.78,1.48-.72,1.89.15h0Z"/>
      </g>
      <path class="cls-14" d="M424.24,241.21c-5.82,6.48-11.81,12.89-18.88,18.11-7.06,5.22-15.31,9.23-24.17,10.31,7.86-4.73,14.98-10.57,21.06-17.28-12.94,11.54-30.62,18.07-48.33,17.85,17.05-4.8,34.02-12.66,44.41-26.44-6.79,5.16-14.43,9.3-22.54,12.23,11.33-7.07,22.26-14.74,32.71-22.96-3.44,7.19-7.53,14.09-12.21,20.6,8.93-6.49,16.62-14.53,22.6-23.62-2.08,5.25-4.17,10.5-6.25,15.75,12.81-14.07,26.29-29.04,30.86-47.69-1.72,7.12-1.29,14.52-4.09,21.36-3.34,8.18-9.25,15.17-15.17,21.76Z"/>
    </g>
    <path class="cls-2" d="M90.37,150.92s9.04-55.99,48.69-66.08c39.65-10.09,53.21,3.33,53.21,3.33,0,0-35.12-31.16-70.6-6.12-35.47,25.04-31.3,68.86-31.3,68.86Z"/>
    <path class="cls-2" d="M115.27,178.26s13.7-49.95,43.27-56.9c29.56-6.96,47.99,4.52,60.51,21.56s24.69,26.78,24.69,26.78c0,0-27.47-59.82-56.34-63.99-28.87-4.17-51.12,11.13-57.73,22.95-6.61,11.82-16,38.95-13.22,50.43"/>
    <path class="cls-2" d="M239.52,189.36s-29.75-45.98-72.88-16.3c0,0,53.33-15.77,64.92,27.82"/>
  </g>
  <path class="cls-1" d="M161.74,68.62s18.45-1.36,36.8,7.24c18.35,8.6,34.13,34.7,39.86,51.91,5.74,17.21.57,17.21.57,17.21,0,0-13.48-39-28.96-54.2s-45.88-18.35-45.88-18.35l-2.39-3.8Z"/>
  <path class="cls-1" d="M222.42,290.15s102.91-13.32,165.45.95c0,0-32.28,30.33-24.63,46.39s51.24,34.41,44.35,55.06-149.88,28.29-160.59,10.71c-10.71-17.59,16.06-59.65,14.53-71.88-1.53-12.24-39.12-41.23-39.12-41.23Z"/>
  <g>
    <path class="cls-12" d="M161.59,349.11v1.82c-4.92,0-11.98,2.57-21.83,25.57l-18.51,47.93h-1.82l-19.15-46.22-17.12,46.22h-1.82l-26.85-64.83c-3.42-8.67-7.06-8.67-9.84-8.67v-1.82h34.13v1.82c-9.42,0-4.81,12.41-4.81,12.41l15.41,39.05,9.95-26.85-6.1-15.94c-3.32-8.67-7.06-8.67-9.84-8.67v-1.82h34.13v1.82c-9.63,0-4.81,12.41-4.81,12.41l15.19,39.48,10.16-26.85s10.16-25.03-8.02-25.03v-1.82h31.56Z"/>
    <path class="cls-12" d="M206.96,417.04l1.82.75c-.86,3.42-5.78,7.6-12.52,7.6,0,0-9.52,0-10.7-8.67-1.6,4.71-7.92,8.67-15.51,8.67,0,0-12.3,0-12.3-10.91,0-11.66,8.99-12.73,27.71-17.44v-6.63c0-11.13-6.2-16.69-13.59-12.84-3.42,1.71-3.85,3.53-3.1,3.64,1.6.21,3,.96,3.96,2.35,1.93,2.78,1.18,6.53-1.6,8.45-2.78,1.82-6.53,1.18-8.45-1.6-1.28-2.03-1.39-4.6-.32-6.42,1.07-1.82,2.46-4.71,8.34-7.81,4.81-2.57,10.38-2.14,10.38-2.14,14.01,0,17.87,8.77,17.87,21.4v15.94s-.11,7.49,5.14,7.49c0,0,2.25,0,2.89-1.82ZM185.46,398.96c-10.48,2.35-14.01,7.38-14.01,12.84,0,0,0,7.06,6.95,7.06,3.64,0,6.1-2.89,7.06-5.46v-14.44Z"/>
    <path class="cls-12" d="M265.06,422.61v1.82h-22.04v-1.82c4.07-1.18,4.28-5.78,4.28-11.23v-20.76c0-5.14-3.32-8.88-8.67-8.88-4.17,0-9.09,4.49-9.09,8.77v21.08c0,5.88.64,9.95,4.39,11.02v1.82h-21.93v-1.82c4.07-1.18,4.17-5.56,4.17-11.02v-24.18c0-3.74-.96-4.92-5.35-7.28v-1.82l18.72-4.28v11.45c2.46-6.53,10.91-11.45,17.65-11.45,8.34,0,13.48,3.32,13.48,16.26v21.08c0,5.88.54,10.27,4.39,11.23Z"/>
    <path class="cls-12" d="M328.82,421.39v1.7l-15.73,2.2c-3,.4-3-1.8-3-1.8v-6.2c-3.42,5.9-11.34,8.1-16.37,8.1-12.09,0-22.79-8.9-22.79-24.71s11.34-23.31,26.32-23.31c4.92,0,9.42,1.1,12.84,3v-19.11c0-3.5-1.07-4.5-5.46-6v-1.7l18.72-3.7v64.93c0,4.9,1.07,6.1,5.46,6.6ZM310.1,395.78c0-12.6-6.63-16.71-12.73-16.71-7.81,0-11.23,5.5-11.23,20.71,0,16.11,3.53,22.11,12.2,22.11,7.28,0,11.77-5,11.77-12.01v-14.11Z"/>
    <path class="cls-12" d="M382.1,398.75h-34.02c.86,10.48,6.21,15.94,13.37,17.55,5.78,1.28,14.34-.86,17.01-5.88l1.82.96c-1.71,5.56-8.02,14.01-22.36,14.01s-23.64-12.95-23.64-25.46c0-15.09,10.27-25.89,25.03-25.89,15.51,0,22.79,8.02,22.79,24.71ZM369.05,396.93c0-13.48-4.39-21.08-10.27-21.08-6.31,0-10.7,10.81-10.7,21.08h20.97Z"/>
    <path class="cls-12" d="M428.11,375.96c3.32,2.89,3.64,8.02.75,11.23-2.89,3.32-7.81,3.74-11.23.86-1.61-1.5-2.46-3.32-2.46-5.24,0-1.18-4.39-.11-8.35,6.31v22.25c0,5.99.54,10.16,4.39,11.23v1.82h-22.15v-1.82c4.17-1.28,4.28-5.67,4.28-11.23v-23.75c0-3.64-.96-5.24-5.35-7.49v-1.82l18.83-4.28v12.09c5.67-8.88,10.06-10.48,12.63-11.56,2.25-.96,6.31-.54,8.67,1.39Z"/>
    <path class="cls-12" d="M458.06,422.61v1.82h-21.93v-1.82c4.07-1.28,4.28-5.78,4.28-11.23v-23.75c0-3.64-1.07-5.14-5.46-7.49v-1.82l18.72-4.28v37.34c0,5.99.54,10.16,4.39,11.23ZM445.97,365.48c-4.07,0-7.28-3.21-7.28-7.28s3.21-7.28,7.28-7.28,7.38,3.21,7.38,7.28-3.32,7.28-7.38,7.28Z"/>
    <path class="cls-12" d="M517.44,422.61v1.82h-22.04v-1.82c4.07-1.18,4.28-5.78,4.28-11.23v-20.76c0-5.14-3.32-8.88-8.67-8.88-4.17,0-9.09,4.49-9.09,8.77v21.08c0,5.88.64,9.95,4.39,11.02v1.82h-21.93v-1.82c4.07-1.18,4.17-5.56,4.17-11.02v-24.18c0-3.74-.96-4.92-5.35-7.28v-1.82l18.72-4.28v11.45c2.46-6.53,10.91-11.45,17.65-11.45,8.35,0,13.48,3.32,13.48,16.26v21.08c0,5.88.54,10.27,4.39,11.23Z"/>
    <path class="cls-12" d="M578.64,382.91c-2.46,2.25-6.31,1.93-8.56-.54-1.07-1.28-1.5-2.78-1.28-4.28.11-.86-2.46-.32-4.28,1.93,2.57,2.67,3.85,6.21,3.85,10.06,0,8.67-7.49,16.05-20.65,16.05-4.17,0-7.28-.54-9.84-1.6-2.89,1.28-9.41,10.06,1.93,10.06h14.98c7.38,0,19.79.86,17.76,17.01,0,0-.53,8.99-11.77,15.3-14.98,8.34-34.45,7.38-38.62-1.39-3.74-7.81,2.78-16.37,9.09-19.15-2.89-1.39-5.56-4.17-5.56-8.99,0,0-.11-9.73,10.27-13.69-5.35-2.35-8.77-7.92-8.77-13.59,0-8.67,7.49-16.05,20.54-16.05,7.06,0,11.98,1.82,15.41,4.71,3.1-4.49,7.6-5.88,10.06-6.31,2.03-.43,4.49.21,5.99,1.93,2.25,2.46,2.03,6.31-.54,8.56ZM533.17,427.42c-9.84,5.56-2.25,14.12-2.25,14.12,5.88,7.06,18.83,9.63,28.89,3.74,7.06-4.28,6.21-10.7,6.21-10.7,0,0-.96-5.67-8.77-5.67h-14.55c-1.18,0-5.35.21-9.52-1.5ZM555.85,390.08c0-11.98-3.53-14.23-8.13-14.23-5.35,0-8.02,2.25-8.02,14.23s3.32,14.23,8.02,14.23,8.13-2.25,8.13-14.23Z"/>
    <path class="cls-12" d="M184.64,518.42v1.98h-11.06c-21.41-.12-18.28-.12-26.7-25.43-3.97-12.01-15.03-12.01-15.03-12.01h-5.65v23.33c0,7.93,3.85,12.13,8.9,12.13v1.98h-35v-1.98c5.17,0,8.66-4.2,8.66-12.13v-55.64c0-7.23-3.37-10.38-8.66-10.38v-1.98h29.82c23.93,0,40.77,2.8,40.77,22.28,0,14.23-9.14,19.48-23.45,21.11,7.82-.82,17.44,4.32,23.33,25.31,2.41,8.86,10.94,11.2,14.07,11.43ZM151.09,460.56c0-20.3-9.5-20.3-21.17-20.3h-3.73v40.71h3.73c11.67,0,21.17-.12,21.17-20.41Z"/>
    <path class="cls-12" d="M247.66,493.45c0,15.28-10.22,27.99-28.62,27.99s-28.62-12.71-28.62-27.99,10.34-27.99,28.62-27.99,28.62,12.6,28.62,27.99ZM229.86,493.45c0-21.11-2.17-26.01-10.82-26.01s-10.94,4.9-10.94,26.01,2.28,26.01,10.94,26.01,10.82-4.9,10.82-26.01Z"/>
    <path class="cls-12" d="M314.52,493.45c0,15.28-10.22,27.99-28.62,27.99s-28.62-12.71-28.62-27.99,10.34-27.99,28.62-27.99,28.62,12.6,28.62,27.99ZM296.73,493.45c0-21.11-2.17-26.01-10.82-26.01s-10.94,4.9-10.94,26.01,2.28,26.01,10.94,26.01,10.82-4.9,10.82-26.01Z"/>
    <path class="cls-12" d="M363.95,515.15s-4.57,6.3-16.84,6.3c-14.55,0-21.77-5.37-21.77-5.37v-14.7h2.04c1.8,4.55,5.65,18.08,19.72,18.08,8.54,0,9.98-10.5.84-16.33l-12.15-7.12c-11.67-6.88-14.79-16.33-8.18-24.73,0,0,4.57-5.83,16.59-5.83,13.83,0,19.84,3.5,19.84,3.5v13.06h-2.04c-1.56-4.08-5.41-14.58-17.8-14.58-7.82,0-11.18,8.98-.72,15.4l12.15,7.35c10.7,6.42,14.31,16.56,8.3,24.96Z"/>
    <path class="cls-12" d="M412.18,509.09l1.8,1.05c-2.4,5.48-9.74,11.31-17.8,11.31-9.5,0-15.15-3.73-15.15-17.85v-35.11h-6.01l-.36-1.98h6.37v-15.63l15.03-2.45v18.08h14.31l-.48,1.98h-13.83v34.76c0,6.53,2.89,9.92,8.9,9.92,3.49,0,6.13-2.33,7.22-4.08Z"/>
    <path class="cls-12" d="M473.27,492.4h-38.24c.96,11.43,6.98,17.38,15.03,19.13,6.49,1.4,16.12-.93,19.12-6.42l2.04,1.05c-1.92,6.06-9.02,15.28-25.13,15.28s-26.58-14.11-26.58-27.76c0-16.45,11.54-28.23,28.14-28.23,17.44,0,25.62,8.75,25.62,26.94ZM458.6,490.42c0-14.7-4.93-22.98-11.54-22.98-7.1,0-12.03,11.78-12.03,22.98h23.57Z"/>
    <path class="cls-12" d="M524.98,467.56c3.73,3.15,4.09,8.75.84,12.25-3.25,3.61-8.78,4.08-12.63.93-1.8-1.63-2.77-3.62-2.77-5.72,0-1.28-4.93-.12-9.38,6.88v24.26c0,6.53.6,11.08,4.93,12.25v1.98h-24.89v-1.98c4.69-1.4,4.81-6.18,4.81-12.25v-25.89c0-3.97-1.08-5.72-6.01-8.17v-1.98l21.16-4.67v13.18c6.37-9.68,11.3-11.43,14.19-12.6,2.53-1.05,7.1-.58,9.74,1.52Z"/>
  </g>
  <g>
    <path class="cls-12" d="M296.39,292.73v12.67h-1.25c-.59-11.29-16.31-11.6-16.31-11.6h-1.4v35.69c0,4.29,3.17,6.56,6.27,6.56v1.07h-23.25v-1.07c3.1,0,6.27-2.27,6.27-6.56v-35.69h-1.4s-15.65.32-16.24,11.6h-1.25v-12.67h48.57Z"/>
    <path class="cls-12" d="M335.21,336.05v1.07h-15.13v-1.07c2.8-.69,2.95-3.47,2.95-6.68v-11.92c0-3.59-1.92-5.3-6.2-5.3-2.07,0-4.58,1.26-6.13,3.78v13.43c0,3.47.37,6.05,3.03,6.62v1.13h-15.2v-1.13c2.8-.69,2.95-3.4,2.95-6.62v-31.78c0-2.21-.74-2.84-3.69-3.78v-1.07l12.92-2.65v24.15c1.4-3.34,7.6-6.81,12.18-6.81,5.91,0,9.3,2.21,9.3,9.77v12.17c0,3.47.44,6.12,3.03,6.68Z"/>
    <path class="cls-12" d="M372.03,321.99h-23.47c.59,6.18,4.28,9.39,9.23,10.34,3.99.76,9.89-.5,11.73-3.47l1.25.57c-1.18,3.28-5.53,8.26-15.43,8.26s-16.31-7.63-16.31-15.01c0-8.89,7.09-15.26,17.27-15.26,10.7,0,15.72,4.73,15.72,14.57ZM363.03,320.91c0-7.95-3.03-12.42-7.09-12.42-4.35,0-7.38,6.37-7.38,12.42h14.47Z"/>
  </g>
  <g>
    <path class="cls-12" d="M212.44,569.34c-.04.23-.08.45-.12.68-1.78-.3-3.59.04-4.1,2.96-1.11,6.33-2.23,12.67-3.34,19-.48,2.72.6,4.48,2.42,4.79-.04.23-.08.45-.12.68-4.1-.7-8.19-1.44-12.28-2.22.04-.23.09-.45.13-.68,1.77.34,3.27-.95,3.78-3.67,1.18-6.32,2.35-12.65,3.53-18.97.46-2.48-.47-3.76-2.2-4.09.04-.23.09-.45.13-.68,4.06.77,8.12,1.51,12.18,2.2ZM227.43,599.89c-.03.23-.06.46-.09.68-2.23-.31-4.47-.63-6.7-.96-4.48-.68-5.35-2.01-8.75-8.82-1.88-3.69-3.26-6.28-3.26-6.28,2.29-1.9,4.56-3.81,6.81-5.74.03,0,8.25-6.74,1.06-8.06.04-.23.07-.45.11-.68,4.45.73,8.9,1.4,13.36,2.03-.03.23-.06.46-.1.68-2.75-.4-5.47-.67-16.14,9,7.66,14.12,8.17,14.66,8.12,14.67,1.68,2.92,4.44,3.31,5.58,3.47Z"/>
    <path class="cls-12" d="M255.5,594.95c-.28,2.94-.56,5.88-.84,8.82-7.99-.76-15.97-1.67-23.93-2.73.03-.23.06-.46.09-.68,1.78.24,2.73-1.77,3.08-4.51.74-5.76,1.49-11.52,2.23-17.28.32-2.5.06-4.95-1.73-5.18.03-.23.06-.46.09-.68,7.44.99,14.88,1.84,22.34,2.56-.25,2.56-.49,5.12-.74,7.68-.23-.02-.47-.05-.7-.07-.29-7.06-11.28-8.25-11.28-8.28-.49-.06-.98-.11-1.46-.17-.52,4.34-1.04,8.69-1.56,13.03.5.06,1,.12,1.49.18,0,0,6.32.72,7.18-3.45.23.02.47.05.7.07-.32,3.03-.64,6.06-.95,9.09-.24-.02-.47-.05-.71-.08.02-4.24-6.29-4.94-6.29-4.95-.5-.06-1-.12-1.5-.18-.53,4.44-1.06,8.87-1.59,13.31.51.06,1.02.12,1.53.18,0,.03,11.29,1.26,13.83-6.73.24.02.48.05.71.07Z"/>
    <path class="cls-12" d="M292.47,577.64c0,.23-.02.46-.03.69-1.08-.04-5.02-.11-10.12,8.52-1.01,1.83-2.03,3.66-3.06,5.48-.16,2.78-.32,5.57-.49,8.35-.16,2.76,1.58,4.32,3.38,4.42-.01.23-.02.46-.04.69-4.48-.24-8.96-.52-13.44-.85.02-.23.03-.46.05-.69,1.79.13,3.72-1.2,3.91-3.96.14-2.09.28-4.19.43-6.28-5.42-10.96-7.06-14.1-7.08-14.09-1.55-3.22-3.08-3.48-4.1-3.57.02-.22.04-.43.06-.65,4.33.38,8.66.72,12.99,1-.01.22-.03.43-.04.65-.85-.06-3.72-.3-1.25,4.56,1.72,3.24,3.47,6.47,5.25,9.69,1.04-1.82,2.08-3.65,3.1-5.48.02,0,4.09-8.07-1.8-8.4.01-.23.03-.46.04-.69,4.08.24,8.16.43,12.24.59Z"/>
    <path class="cls-12" d="M347.38,577.3c.01.23.02.46.04.69-1.89.09-4.49,1.2-7.97,10.07-2.17,6.15-4.4,12.29-6.71,18.42-.24,0-.48.01-.73.02-2.69-5.78-5.32-11.59-7.87-17.4-2.14,5.88-4.34,11.74-6.61,17.6-.24,0-.48,0-.73,0-3.58-8.2-7.03-16.43-10.34-24.69-1.26-3.31-2.64-3.34-3.71-3.36,0-.23,0-.46.01-.69,4.34.09,8.68.14,13.02.14,0,.23,0,.46,0,.69-3.59,0-1.86,4.71-1.86,4.71,1.96,4.95,3.97,9.89,6.02,14.82,1.29-3.41,2.55-6.82,3.8-10.23-.81-2.01-1.62-4.02-2.42-6.03-1.3-3.28-2.72-3.27-3.79-3.27,0-.23,0-.46,0-.69,4.34-.01,8.68-.07,13.02-.17,0,.23.01.46.02.69-3.68.08-1.75,4.75-1.74,4.75,2.05,4.96,4.15,9.9,6.3,14.83,1.23-3.44,2.45-6.88,3.64-10.32.02,0,3.54-9.63-3.41-9.4,0-.23-.01-.46-.02-.69,4.01-.13,8.03-.29,12.04-.49Z"/>
    <path class="cls-12" d="M375.51,595.06c.28,2.94.55,5.88.83,8.82-7.99.75-15.99,1.35-24,1.8-.01-.23-.03-.46-.04-.69,1.79-.1,2.35-2.25,2.18-5.01-.35-5.8-.7-11.6-1.04-17.4-.15-2.51-.87-4.87-2.66-4.77-.01-.23-.03-.46-.04-.69,7.48-.42,14.95-.98,22.41-1.67.24,2.56.48,5.12.71,7.69-.23.02-.47.04-.7.06-1.6-6.88-12.62-5.99-12.63-6.02-.49.04-.98.07-1.47.1.3,4.36.61,8.73.91,13.09.5-.03,1-.07,1.5-.11,0,0,6.34-.48,6.4-4.73.23-.02.47-.04.7-.06.25,3.04.51,6.07.76,9.11-.24.02-.48.04-.71.06-.77-4.16-7.1-3.68-7.1-3.69-.5.04-1,.07-1.5.11.31,4.46.62,8.92.93,13.37.51-.04,1.02-.07,1.53-.11,0,.03,11.32-.88,12.32-9.21.24-.02.48-.04.71-.07Z"/>
    <path class="cls-12" d="M402.76,597.86s-1.53,3.59-8.39,4.44c-8.26.99-11.92-1.2-11.91-1.19-.27-2.59-.54-5.17-.8-7.76.24-.02.47-.05.71-.07,1.17,2.36,4.34,9.25,11.92,8.34,4.56-.57,5.15-6.58-.4-9.53-2.31-1.04-4.6-2.09-6.89-3.16-6.32-2.94-8.86-6.78-5.93-11.53,0,0,1.68-3.26,8.08-4.01,6.93-.83,10.68.59,10.69.6.31,2.25.62,4.51.92,6.76-.23.03-.47.06-.7.09-1.08-2.03-4.35-7.55-10.83-6.77-4.37.51-5.41,6.02.34,8.84,2.28,1.12,4.57,2.23,6.87,3.33,5.91,2.8,8.87,6.8,6.3,11.62Z"/>
    <path class="cls-12" d="M431.85,567.15c.51,2.67,1.02,5.35,1.53,8.02-.23.04-.46.09-.69.13-1.7-7.06-10.31-5.7-10.31-5.72-.26.04-.51.09-.77.13,1.31,7.55,2.62,15.1,3.92,22.65.47,2.72,2.53,3.85,4.31,3.53.04.23.08.45.12.68-4.43.79-8.87,1.54-13.31,2.24-.04-.23-.07-.45-.11-.68,1.78-.28,3.36-2.02,2.91-4.74-1.23-7.56-2.47-15.13-3.7-22.69-.26.04-.51.08-.77.13,0,.02-8.54,1.54-7.83,8.77-.23.03-.47.07-.7.1-.39-2.69-.79-5.39-1.18-8.08,8.88-1.3,17.75-2.79,26.58-4.47Z"/>
  </g>
  <path class="cls-15" d="M151.79,134.12c3.93-2.56,8.65-3.76,13.28-4.25,4.67-.47,9.34-.3,13.96.26-4.65.39-9.27.44-13.84.93-4.57.46-9.07,1.36-13.41,3.06Z"/>
  <path class="cls-15" d="M121.9,111.3c1.12-.9,2.02-2.02,3.13-2.97,1.08-.96,2.24-1.84,3.44-2.65,2.42-1.6,5.02-2.94,7.82-3.74-2.39,1.65-4.8,3.14-7.15,4.73l-3.53,2.4c-1.18.77-2.33,1.72-3.71,2.23Z"/>
  <path class="cls-15" d="M112.14,111.95c.74-1.57,2.01-2.87,3.34-3.98,1.34-1.1,2.72-2.1,4.11-3.1,2.8-1.97,5.65-3.87,8.71-5.47-2.51,2.37-5.24,4.44-8.02,6.44-1.39.99-2.83,1.94-4.24,2.88-1.4.95-2.76,1.92-3.9,3.23Z"/>
  <path class="cls-15" d="M113.25,103.19c.66-2.19,2.34-3.97,4.08-5.4,1.78-1.43,3.61-2.7,5.44-4,3.69-2.56,7.43-5.05,11.38-7.23-3.41,2.96-7.02,5.62-10.69,8.21l-5.56,3.77c-1.8,1.26-3.55,2.66-4.65,4.65Z"/>
  <path class="cls-15" d="M141.19,82.7c2.5-1.23,5.13-2.12,7.78-2.92,1.33-.38,2.67-.75,4.02-1.05.69-.13,1.31-.35,2.12-.32.38.02.86.21,1.04.6.19.34.16.86-.19,1.02.26-.27.12-.64-.07-.84-.2-.21-.48-.23-.77-.2-.58.1-1.25.43-1.89.65-1.3.48-2.61.9-3.93,1.29-2.65.76-5.31,1.44-8.11,1.77Z"/>
  <path class="cls-15" d="M166.19,91.36c-.22-.04-.24-.29-.14-.45.08-.17.2-.31.36-.42.38-.22.65-.24.98-.36.64-.19,1.3-.32,1.96-.42,1.33-.19,2.68-.21,4.02-.1,2.67.26,5.32,1.07,7.52,2.6-2.58-.66-5.07-1.19-7.63-1.41-1.27-.13-2.55-.17-3.84-.16-.64.01-1.29.03-1.94.06-.3.03-.71.01-.93.07-.13.04-.27.12-.37.23-.11.08-.16.3,0,.36Z"/>
  <path class="cls-15" d="M189.73,91.85c1.55.81,3.04,1.69,4.51,2.61,1.43.91,3.03,1.9,4.08,3.46.51.74.92,1.45,1.47,2.03.55.59,1.2,1.14,1.85,1.71.65.57,1.32,1.17,1.87,1.88.56.7.95,1.58,1,2.45-.59-1.69-2.06-2.6-3.45-3.59-.71-.5-1.43-1.02-2.08-1.67-.67-.66-1.16-1.45-1.63-2.12-.88-1.36-2.27-2.3-3.64-3.38-1.36-1.07-2.69-2.19-3.97-3.38Z"/>
  <path class="cls-15" d="M204.33,136.9c-1.48-1.14-3.23-1.64-4.99-1.87-1.77-.22-3.59-.21-5.4-.14-3.63.1-7.23.58-10.89,1.18,3.4-1.51,7.12-2.24,10.85-2.37,1.86-.05,3.75,0,5.61.42,1.84.41,3.68,1.3,4.83,2.79Z"/>
  <path class="cls-15" d="M170.48,135.06c-2.61-.17-4.92,1.03-7.21,2.12-2.28,1.18-4.83,2.04-7.35,2.58-2.52.57-5.03.99-7.44,1.74-2.4.75-4.74,1.79-6.65,3.54,1.56-2.08,3.92-3.49,6.34-4.42,2.44-.95,5-1.45,7.48-2.02,2.51-.53,4.87-1.25,7.23-2.27,2.34-.94,5.02-1.92,7.59-1.26Z"/>
  <path class="cls-15" d="M142.34,124.73c2.03-.51,3.53-1.89,5.17-3.13,1.65-1.27,3.51-2.31,5.45-3.09,3.9-1.53,8.24-2.04,12.3-1.18-4.12.09-8.12.81-11.86,2.29-1.87.74-3.65,1.66-5.36,2.75-1.69,1.07-3.58,2.34-5.7,2.36Z"/>
  <path class="cls-15" d="M197.99,157.98c2.39-1,5.13-1.04,7.69-.67,2.58.36,5.06,1.08,7.53,1.63,2.42.63,5.05.74,7.53,1.8,2.45,1.04,4.46,2.72,6.38,4.42-2.2-1.33-4.36-2.73-6.71-3.54-2.32-.82-4.92-.88-7.46-1.51-5.01-1.14-9.83-3.17-14.95-2.13Z"/>
  <path class="cls-15" d="M177.01,149.77c3.67-.42,7.33-.47,10.99-.44,1.82.05,3.68.02,5.55.42,1.82.36,3.77,1.32,4.59,3.04-1.23-1.43-3-1.91-4.74-2.11-1.76-.2-3.57-.12-5.41-.15-3.66-.07-7.32-.23-10.97-.76Z"/>
  <path class="cls-15" d="M185.06,127.51c3.32-.63,6.73-.66,10.08-.36,1.68.18,3.35.38,5.02.85,1.64.47,3.31,1.33,4.26,2.76-1.31-1.09-2.89-1.55-4.48-1.84-1.6-.27-3.26-.42-4.91-.58-3.3-.34-6.61-.52-9.97-.83Z"/>
  <path class="cls-15" d="M229.56,134.01c2.49,1.31,4.63,3.22,6.42,5.39,1.77,2.19,3.22,4.66,3.99,7.37-1.63-2.29-3.18-4.51-4.92-6.61-1.71-2.12-3.58-4.09-5.5-6.14Z"/>
  <path class="cls-15" d="M225.18,169.09c2.14,1.79,4.01,3.81,5.81,5.89.87,1.02,1.79,2.19,2.55,3.15.15.15.27.21.54.16.26-.05.56-.2.87-.36.31-.18.72-.3,1.1-.28.37,0,.82.22.86.59-.18-.33-.54-.35-.84-.27-.31.08-.56.23-.81.45-.27.22-.55.46-.95.62-.38.19-1.03.13-1.39-.19-1.1-1.06-1.92-2.04-2.85-3.09-1.77-2.11-3.48-4.27-4.91-6.67Z"/>
  <path class="cls-15" d="M207.15,181.98c1.28-1.01,2.99-1.39,4.58-1.54,1.61-.15,3.19-.16,4.78-.19,1.59,0,3.18.02,4.78.09,1.55.08,3.45.3,4.51,1.62-1.36-.91-2.96-.75-4.51-.68-1.59.1-3.18.14-4.76.16-1.58.01-3.19-.04-4.75-.07-1.56-.01-3.11.02-4.62.61Z"/>
  <path class="cls-15" d="M183.04,217.99c-.88.32-1.42,1.06-2.01,1.75-.59.7-1.19,1.4-1.8,2.08-1.22,1.36-2.48,2.69-3.75,4l-1.95,1.93c-.66.68-1.35,1.18-1.75,1.94-.21.4-.47.8-.83,1.16-.33.38-.65.66-.98.99-.66.64-1.34,1.26-2.03,1.87.51-.76,1.05-1.51,1.59-2.25.26-.37.58-.74.8-1.09.12-.18.25-.34.35-.53l.28-.62c.16-.41.51-.89.81-1.23l.94-1.02,1.9-1.98c1.29-1.3,2.59-2.58,3.94-3.82.67-.62,1.35-1.23,2.05-1.83.68-.58,1.47-1.27,2.42-1.35Z"/>
  <path class="cls-15" d="M177.32,235.9c-1.27,2.64-2.84,5.08-4.48,7.47-1.65,2.37-3.28,4.64-4.22,7.43,0-3,1.61-5.75,3.23-8.11,1.67-2.37,3.42-4.68,5.47-6.79Z"/>
  <path class="cls-15" d="M125.73,232.73c-.55-2.57-.68-5.16-.67-7.75.05-2.59.24-5.18.86-7.74.33,2.6.35,5.17.34,7.75-.05,2.57-.14,5.14-.53,7.74Z"/>
  <path class="cls-15" d="M120.83,215.24c-.45-1.4-.48-2.83-.36-4.24.16-1.4.48-2.8,1.21-4.08.2,1.46.1,2.83-.02,4.2-.16,1.37-.35,2.73-.83,4.12Z"/>
  <path class="cls-15" d="M125.42,184.84c-.47-1.88-.11-3.89.28-5.73.43-1.86.73-3.65.84-5.53.3-3.68.22-7.76,2.1-11.2-.96,3.71-.62,7.45-.91,11.29-.13,1.91-.52,3.88-1.12,5.68-.56,1.81-1.18,3.57-1.19,5.5Z"/>
  <path class="cls-15" d="M100.66,137.09c-.97,1.69-2.19,3.26-3.57,4.65-1.37,1.39-2.81,2.67-3.91,4.15-.55.74-1,1.53-1.31,2.37-.3.84-.44,1.77-.58,2.72-.26,1.92-.58,3.84-.99,5.74-.06-1.95-.04-3.89.05-5.83.05-.97.13-1.99.44-2.99.31-.99.81-1.91,1.42-2.73,1.23-1.63,2.77-2.88,4.23-4.12,1.47-1.23,2.86-2.55,4.21-3.96Z"/>
  <path class="cls-15" d="M100.07,122.35c.16-3.76,1.14-7.47,2.6-10.95,1.49-3.47,3.48-6.74,6.09-9.46-1.83,3.28-3.56,6.53-4.99,9.93-1.46,3.39-2.61,6.89-3.69,10.48Z"/>
  <path class="cls-15" d="M157.39,112.18c1.46-1.71,3.37-2.97,5.4-3.89,2.05-.89,4.26-1.47,6.51-1.4-2.06.87-4.06,1.61-6.02,2.49-1.97.86-3.86,1.84-5.89,2.8Z"/>
  <path class="cls-15" d="M116.22,94.54c2.15-1.39,2.34-4.01,4.15-6.06,1.83-2.01,4.36-2.87,6.79-3.32-2.13,1.34-4.38,2.37-5.9,4.11-.76.84-1.32,1.92-2.04,2.97-.7,1.03-1.71,2.1-3,2.31Z"/>
  <path class="cls-15" d="M134.23,82.32c1.56-1.32,3.4-2.21,5.31-2.85,1.92-.61,3.93-.99,5.97-.83-1.88.78-3.74,1.35-5.6,1.97-1.87.59-3.7,1.23-5.68,1.72Z"/>
  <path class="cls-15" d="M201.81,96.91c3.01,1.38,5.75,3.25,8.29,5.35,2.52,2.13,4.85,4.49,6.74,7.21-2.57-2.07-5-4.22-7.5-6.29-2.48-2.1-5.03-4.11-7.52-6.27Z"/>
  <path class="cls-15" d="M171.6,169.65c1.35-2.19,3.41-3.9,5.7-5.08,2.31-1.16,4.9-1.82,7.47-1.61-2.44.73-4.74,1.55-6.92,2.67-2.19,1.1-4.21,2.47-6.25,4.01Z"/>
  <path class="cls-15" d="M168.22,225.19c-.14-.19-.11-.49.06-.68.15-.2.35-.34.56-.47.42-.26.86-.38,1.19-.63.71-.48,1.25-1.16,1.75-1.88.96-1.49,2.05-3.06,3.33-4.4,2.56-2.69,5.73-4.84,9.24-5.94-3.1,1.96-5.93,4.16-8.37,6.76-1.26,1.29-2.29,2.68-3.46,4.15-.6.71-1.31,1.41-2.21,1.82-.45.22-.93.27-1.33.41-.37.13-.91.36-.75.86Z"/>
  <path class="cls-15" d="M196.32,242.24c-1.09-2.27-.89-5.08.17-7.4,1.06-2.32,3.06-4.31,5.5-4.95-1.97,1.5-3.45,3.34-4.41,5.45-.98,2.11-1.41,4.43-1.26,6.9Z"/>
  <path class="cls-15" d="M202.33,199.68c1.89-1.09,4.3-1.15,6.4-.46,2.09.69,4.01,2.17,4.87,4.17-1.62-1.4-3.35-2.42-5.25-3.04-1.89-.63-3.89-.84-6.02-.67Z"/>
  <path class="cls-15" d="M152.4,206.94c2.03-2.52,4.31-4.77,6.65-6.96,2.36-2.16,4.79-4.26,7.46-6.08-2.03,2.52-4.31,4.77-6.65,6.96-2.36,2.16-4.79,4.25-7.46,6.08Z"/>
  <path class="cls-15" d="M204.14,170.83c.59-.04,1.02-.37,1.5-.68.46-.3,1.11-.63,1.83-.55,1.42.18,2.28,1.16,3.15,1.75,1.75,1.33,3.67,2.37,5.74,3.4-2.32-.11-4.57-1.05-6.45-2.44-.95-.71-1.7-1.55-2.58-1.78-.42-.12-.89-.02-1.44.15-.53.16-1.18.36-1.74.15Z"/>
  <path class="cls-15" d="M212.83,145.57c2.92,1.63,5.66,3.43,8.29,5.53,1.28,1.08,2.51,2.29,3.43,3.75.94,1.43,1.49,3.17,1.37,4.84-.72-3.3-3.1-5.6-5.56-7.68-2.51-2.06-5.18-4.08-7.52-6.45Z"/>
  <path class="cls-15" d="M222.95,147.22c1.1,1.46,2.03,2.89,3.06,4.28,1.01,1.4,2.09,2.72,3.15,4.22-1.67-.77-3.03-2.05-4.11-3.51-1.06-1.48-1.87-3.16-2.1-4.98Z"/>
  <path class="cls-15" d="M237.99,150.18c1.09,3.32,2.11,6.59,3.31,9.81,1.17,3.23,2.53,6.38,3.85,9.61-2.14-2.77-3.74-5.93-4.97-9.2-1.19-3.29-2.02-6.73-2.19-10.22Z"/>
  <path class="cls-15" d="M123.72,159.82c1.09-2.85,2.62-5.48,4.32-7.98,1.73-2.48,3.64-4.85,5.92-6.88-1.54,2.63-3.25,5.08-4.93,7.56-1.71,2.46-3.4,4.93-5.3,7.31Z"/>
  <path class="cls-15" d="M131.84,169.25c-.22-1.42.25-2.9.83-4.18.61-1.28,1.21-2.54,2.14-3.72.93-1.21,2.3-1.96,3.5-2.59,1.21-.65,2.43-1.26,3.13-2.52-.23,1.46-1.5,2.54-2.63,3.32-1.17.82-2.28,1.5-3.07,2.54-.82,1.01-1.5,2.25-2.24,3.41-.71,1.17-1.4,2.34-1.66,3.74Z"/>
  <path class="cls-15" d="M127.4,244.96c-.67-2.78-.84-5.62-.79-8.45.09-2.83.41-5.66,1.22-8.4.13,2.85.03,5.63-.02,8.43-.09,2.79-.14,5.58-.41,8.42Z"/>
  <path class="cls-15" d="M198.78,267.92c-1.68-3.13-2.71-6.57-3.31-10.07-.56-3.5-.69-7.1-.09-10.6.35,3.52.69,6.97,1.27,10.4.55,3.43,1.33,6.81,2.13,10.26Z"/>
  <path class="cls-15" d="M161.13,251.05c-.82-1.87-1.19-3.85-1.37-5.84-.15-1.99-.1-4.01.41-5.98.44,1.99.61,3.93.78,5.89.14,1.96.29,3.91.18,5.94Z"/>
  <path class="cls-15" d="M189.27,160.08c1.66-.47,3.31-.58,4.97-.6,1.66.02,3.31.12,4.97.6-1.66.47-3.31.58-4.97.6-1.66-.02-3.31-.13-4.97-.6Z"/>
  <path class="cls-15" d="M203.43,234.34c1.95-.83,3.82-1.59,5.62-2.51,1.82-.9,3.53-1.95,5.37-3.02-1.2,1.77-2.93,3.11-4.83,4.08-1.91.94-4.02,1.54-6.16,1.44Z"/>
  <path class="cls-15" d="M150.58,99.55c-.66-.56-.64-1.67-.19-2.42.4-.78,1.25-1.41,2.16-1.56,1.83-.33,3.44.37,4.95.58,3.09.58,6.31.46,9.57.71-3.18.69-6.48,1.04-9.78.47-1.66-.28-3.16-.96-4.6-.83-.71.04-1.33.37-1.82.95-.46.55-.73,1.37-.29,2.1Z"/>
  <path class="cls-15" d="M185.83,98.52c-2.68.47-5.35.58-8.03.6-2.68-.02-5.35-.12-8.03-.6,2.68-.47,5.35-.58,8.03-.6,2.68.02,5.35.13,8.03.6Z"/>
</svg>